<?xml version="1.0" encoding="UTF-8"?>
<svg version="1.1" xmlns="http://www.w3.org/2000/svg" width="350" height="388">
<path d="M0 0 C1.09739502 -0.01530762 2.19479004 -0.03061523 3.32543945 -0.04638672 C10.99035049 0.10098194 16.09963656 1.98212393 22.6875 5.75 C24.77550694 6.62303426 26.87804952 7.46305148 29 8.25 C30.09699219 8.6625 31.19398438 9.075 32.32421875 9.5 C33.43410156 9.9125 34.54398438 10.325 35.6875 10.75 C37.89744389 11.57905281 40.10580236 12.4123449 42.3125 13.25 C43.27414063 13.6109375 44.23578125 13.971875 45.2265625 14.34375 C48.11929177 15.51912532 50.9193569 16.78375396 53.74609375 18.10546875 C60.07189198 20.9996178 66.54556485 23.31571054 73.125 25.5625 C73.74766754 25.77588013 74.37033508 25.98926025 75.01187134 26.20910645 C101.11457521 35.12820827 128.13077719 43.19683152 155.55297852 46.72583008 C161.97914341 47.59607861 168.87171204 49.12684356 173.6875 53.75 C174.84319974 57.21709922 174.81456214 59.91104395 174.81689453 63.56958008 C174.81952301 64.60452103 174.81952301 64.60452103 174.82220459 65.66036987 C174.8266123 67.94678247 174.82368536 70.23311783 174.8203125 72.51953125 C174.82098669 74.11838292 174.82195768 75.71723449 174.82321167 77.31608582 C174.82468787 80.67614716 174.82253968 84.03618197 174.81787109 87.39624023 C174.81222445 91.66469645 174.81542077 95.93308907 174.82144356 100.20154285 C174.82509479 103.51078246 174.82388902 106.82000757 174.82131577 110.12924767 C174.82065639 111.70022273 174.82143963 113.27119919 174.82379532 114.84217262 C174.83511767 124.53060856 174.53304717 134.0917077 173.6875 143.75 C173.62565521 144.46680939 173.56381042 145.18361877 173.50009155 145.92214966 C170.92729097 173.09338932 163.78156896 200.0942852 154.6875 225.75 C154.05521484 227.53857422 154.05521484 227.53857422 153.41015625 229.36328125 C150.06218257 238.41521008 145.94723363 247.09880837 141.6875 255.75 C141.34734863 256.44641602 141.00719727 257.14283203 140.65673828 257.86035156 C132.60619873 274.19089972 122.25240146 288.92081871 110.83203125 303.0625 C108.63055586 305.74290798 108.63055586 305.74290798 106.6875 308.75 C106.0275 308.75 105.3675 308.75 104.6875 308.75 C104.43355469 309.32105469 104.17960937 309.89210938 103.91796875 310.48046875 C99.72424074 318.21556708 91.9006622 324.6522626 85.75 330.875 C85.08718018 331.55087158 84.42436035 332.22674316 83.74145508 332.9230957 C83.11650146 333.54917725 82.49154785 334.17525879 81.84765625 334.8203125 C81.28699463 335.38508301 80.72633301 335.94985352 80.14868164 336.53173828 C78.6875 337.75 78.6875 337.75 76.6875 337.75 C76.6875 338.41 76.6875 339.07 76.6875 339.75 C76.0275 339.75 75.3675 339.75 74.6875 339.75 C74.6875 340.41 74.6875 341.07 74.6875 341.75 C70.21691176 345.75 70.21691176 345.75 67.6875 345.75 C67.6875 346.41 67.6875 347.07 67.6875 347.75 C64.22596154 350.75 64.22596154 350.75 61.6875 350.75 C61.6875 351.41 61.6875 352.07 61.6875 352.75 C60.34228516 353.98681641 60.34228516 353.98681641 58.4765625 355.3515625 C57.80882812 355.84140625 57.14109375 356.33125 56.453125 356.8359375 C55.74671875 357.34382813 55.0403125 357.85171875 54.3125 358.375 C53.26449219 359.1484375 53.26449219 359.1484375 52.1953125 359.9375 C46.95060351 363.75 46.95060351 363.75 44.6875 363.75 C44.6875 364.41 44.6875 365.07 44.6875 365.75 C42.50874333 367.34974462 40.34484432 368.81262823 38.0625 370.25 C37.44503906 370.65347656 36.82757813 371.05695313 36.19140625 371.47265625 C32.46574812 373.84923396 28.97764102 375.53556008 24.6875 376.75 C24.6875 377.41 24.6875 378.07 24.6875 378.75 C14.06658811 384.88432108 4.19014259 390.10573292 -8.40234375 387.28125 C-14.36559312 385.23252629 -19.85011276 381.85271628 -25.3125 378.75 C-25.3125 378.09 -25.3125 377.43 -25.3125 376.75 C-26.03179687 376.48445313 -26.75109375 376.21890625 -27.4921875 375.9453125 C-36.51864114 372.11969641 -44.48901815 365.5641723 -52.3125 359.75 C-53.43173502 358.93673337 -54.55154574 358.12425857 -55.671875 357.3125 C-56.78151598 356.50036329 -57.89089673 355.68787088 -59 354.875 C-60.01449219 354.13507813 -61.02898437 353.39515625 -62.07421875 352.6328125 C-62.81285156 352.01148438 -63.55148438 351.39015625 -64.3125 350.75 C-64.3125 350.09 -64.3125 349.43 -64.3125 348.75 C-64.87453125 348.4921875 -65.4365625 348.234375 -66.015625 347.96875 C-68.57954579 346.60830223 -70.76476365 345.02211038 -73.0625 343.25 C-73.86171875 342.6415625 -74.6609375 342.033125 -75.484375 341.40625 C-76.38929687 340.58640625 -76.38929687 340.58640625 -77.3125 339.75 C-77.3125 339.09 -77.3125 338.43 -77.3125 337.75 C-77.9725 337.75 -78.6325 337.75 -79.3125 337.75 C-79.3125 337.09 -79.3125 336.43 -79.3125 335.75 C-79.9725 335.75 -80.6325 335.75 -81.3125 335.75 C-81.3125 335.09 -81.3125 334.43 -81.3125 333.75 C-82.15554687 333.39421875 -82.15554687 333.39421875 -83.015625 333.03125 C-85.83144042 331.46052303 -87.79205416 329.53528536 -90.0625 327.25 C-90.86171875 326.4559375 -91.6609375 325.661875 -92.484375 324.84375 C-94.3125 322.75 -94.3125 322.75 -94.3125 320.75 C-94.9725 320.75 -95.6325 320.75 -96.3125 320.75 C-98.0390625 319.0703125 -98.0390625 319.0703125 -99.9375 316.875 C-100.56914063 316.15570313 -101.20078125 315.43640625 -101.8515625 314.6953125 C-103.3125 312.75 -103.3125 312.75 -103.3125 310.75 C-103.9725 310.75 -104.6325 310.75 -105.3125 310.75 C-106.62182617 309.34814453 -106.62182617 309.34814453 -108.10546875 307.3828125 C-108.65050049 306.66617432 -109.19553223 305.94953613 -109.75708008 305.21118164 C-110.61982544 304.05477173 -110.61982544 304.05477173 -111.5 302.875 C-112.08354248 302.1008374 -112.66708496 301.3266748 -113.26831055 300.52905273 C-125.3125 284.48744555 -125.3125 284.48744555 -125.3125 281.75 C-125.9725 281.75 -126.6325 281.75 -127.3125 281.75 C-128.828125 279.4765625 -128.828125 279.4765625 -130.5625 276.375 C-133.33214333 271.4628024 -136.21209648 266.65924833 -139.24609375 261.90625 C-140.3125 259.75 -140.3125 259.75 -140.3125 255.75 C-140.9725 255.75 -141.6325 255.75 -142.3125 255.75 C-144.07712683 252.66190305 -144.3125 251.51687864 -144.3125 247.75 C-144.9725 247.75 -145.6325 247.75 -146.3125 247.75 C-146.62703125 246.92757812 -146.9415625 246.10515625 -147.265625 245.2578125 C-147.69359375 244.14148438 -148.1215625 243.02515625 -148.5625 241.875 C-148.98015625 240.78445312 -149.3978125 239.69390625 -149.828125 238.5703125 C-150.60583977 236.54906421 -151.39943006 234.53728833 -152.21875 232.5324707 C-159.03657869 215.83115772 -164.87634263 198.47931825 -168.3125 180.75 C-168.56507568 179.46101807 -168.56507568 179.46101807 -168.82275391 178.14599609 C-173.06483977 156.2457967 -175.44452585 134.67416805 -175.5859375 112.37109375 C-175.59126118 111.5737639 -175.59658485 110.77643406 -175.60206985 109.9549427 C-175.62850763 105.75407 -175.6479938 101.55322435 -175.66259766 97.35229492 C-175.67604212 93.89272243 -175.70412592 90.43372511 -175.74462891 86.97436523 C-175.79388794 82.7630644 -175.81870437 78.55229196 -175.82582474 74.34071541 C-175.83252655 72.74549598 -175.8477209 71.15028795 -175.87171555 69.55523491 C-175.90331783 67.33233133 -175.90341608 65.11149667 -175.89599609 62.88842773 C-175.90408295 61.62715561 -175.9121698 60.36588348 -175.92050171 59.06639099 C-175.14628014 54.84334126 -173.6210467 53.39789004 -170.3125 50.75 C-167.21875 49.58984375 -167.21875 49.58984375 -163.3125 48.75 C-162.46558594 48.56324707 -161.61867187 48.37649414 -160.74609375 48.18408203 C-157.77259353 47.53733551 -154.79383865 46.92204826 -151.8125 46.3125 C-150.74459229 46.09150635 -149.67668457 45.8705127 -148.57641602 45.64282227 C-144.03311779 44.70530538 -139.48885369 43.77616629 -134.93359375 42.8984375 C-112.37149198 38.54392793 -90.70098888 30.9917244 -69 23.5625 C-67.81519043 23.1588623 -66.63038086 22.75522461 -65.40966797 22.33935547 C-58.82398846 20.06545145 -52.37078218 17.5981192 -45.95874023 14.87280273 C-43.77846587 13.94770985 -41.59314501 13.05538472 -39.38671875 12.1953125 C-37.71029297 11.54175781 -37.71029297 11.54175781 -36 10.875 C-35.36940674 10.63378418 -34.73881348 10.39256836 -34.08911133 10.14404297 C-30.85987702 8.8796442 -27.95954224 7.5473761 -24.9375 5.8125 C-16.61812668 1.12339868 -9.57029185 0.07386039 0 0 Z M14.08984375 108.71875 C11.61055771 112.44817349 11.61055771 112.44817349 10.6875 116.75 C17.2875 116.75 23.8875 116.75 30.6875 116.75 C32.3375 113.45 33.9875 110.15 35.6875 106.75 C24.3374337 105.26002497 24.3374337 105.26002497 14.08984375 108.71875 Z M91.6875 145.75 C91.67719254 147.23195862 91.66688507 148.71391724 91.65626526 150.24078369 C91.55861078 164.19048586 91.45594221 178.1401441 91.34816074 192.08977127 C91.2928751 199.26181672 91.23940078 206.43386715 91.19018555 213.60595703 C91.14728661 219.85690998 91.10099426 226.107827 91.05062145 232.35872436 C91.02406647 235.66872755 90.99972071 238.97872313 90.97842598 242.28876495 C90.9543701 245.98325064 90.92431684 249.67764161 90.89282227 253.37207031 C90.8870668 254.47042709 90.88131134 255.56878387 90.87538147 256.70042419 C90.86559265 257.70720718 90.85580383 258.71399017 90.84571838 259.75128174 C90.83926583 260.62514149 90.83281328 261.49900124 90.8261652 262.39934158 C90.69375069 264.64403806 90.31314273 266.5957503 89.6875 268.75 C89.0275 268.75 88.3675 268.75 87.6875 268.75 C87.6875 269.41 87.6875 270.07 87.6875 270.75 C67.5575 271.08 47.4275 271.41 26.6875 271.75 C27.3475 274.72 28.0075 277.69 28.6875 280.75 C36.50259859 280.8662459 44.31749174 280.95489217 52.13323975 281.00906086 C55.76312974 281.03506975 59.39242492 281.07030459 63.02197266 281.12719727 C66.52983377 281.18183357 70.03712561 281.21148592 73.54537964 281.22438622 C75.52401527 281.23801615 77.50242429 281.27699905 79.48071289 281.31648254 C88.31978398 281.35710305 88.31978398 281.35710305 96.00009632 277.44184017 C101.25311146 272.17501389 102.14681783 265.30607102 102.19628906 258.17510986 C102.183479 257.10879333 102.17066895 256.04247681 102.1574707 254.94384766 C102.1596611 253.79643097 102.1618515 252.64901428 102.16410828 251.46682739 C102.16640769 247.69893953 102.14023324 243.93184529 102.11328125 240.1640625 C102.10835495 237.53852588 102.10505763 234.91298574 102.10331726 232.28744507 C102.09689053 226.79845905 102.07571535 221.30969759 102.04418945 215.82080078 C102.00377934 208.77583702 101.98647994 201.73101877 101.97688007 194.68595314 C101.9676945 187.97029926 101.94703337 181.25468803 101.92578125 174.5390625 C101.9223855 173.25409504 101.91898975 171.96912758 101.9154911 170.64522171 C101.90394904 167.02335865 101.88543575 163.40160462 101.86450195 159.77978516 C101.86181305 158.70132324 101.85912415 157.62286133 101.85635376 156.51171875 C101.84919846 155.52773102 101.84204315 154.54374329 101.83467102 153.52993774 C101.83039754 152.67421991 101.82612406 151.81850208 101.82172108 150.93685341 C101.77068676 148.57036618 101.77068676 148.57036618 100.6875 145.75 C97.7175 145.75 94.7475 145.75 91.6875 145.75 Z M-110.3125 113.75 C-111.68910208 116.50320417 -111.44479811 118.71386662 -111.45294189 121.79656982 C-111.45865204 123.08642792 -111.46436218 124.37628601 -111.47024536 125.70523071 C-111.47149079 127.14300528 -111.47261587 128.58077995 -111.47363281 130.01855469 C-111.47826001 131.52633791 -111.48328453 133.03411996 -111.48867798 134.54190063 C-111.50181528 138.64535953 -111.50824976 142.74880206 -111.51268864 146.85227871 C-111.5156178 149.41557219 -111.51972235 151.97886118 -111.52419281 154.5421524 C-111.53787251 162.56080821 -111.54753631 170.57945378 -111.5513947 178.59812045 C-111.55587391 187.85650771 -111.57341339 197.11474722 -111.6023953 206.37308955 C-111.62401338 213.52730765 -111.63409908 220.68148419 -111.63543582 227.83573461 C-111.63648395 232.10940681 -111.64239312 236.38294023 -111.66025543 240.65657806 C-111.67673788 244.67849862 -111.67889084 248.70017608 -111.67011642 252.72211838 C-111.66934608 254.19670894 -111.67368842 255.67131258 -111.68357468 257.14587021 C-111.69629919 259.16237221 -111.68862384 261.17897192 -111.67999268 263.19549561 C-111.68145924 264.32301617 -111.6829258 265.45053673 -111.6844368 266.61222458 C-111.26023669 270.19090971 -110.08695229 272.63805535 -108.3125 275.75 C-107.6525 275.75 -106.9925 275.75 -106.3125 275.75 C-106.3125 276.41 -106.3125 277.07 -106.3125 277.75 C-100.83514632 281.18403644 -96.20187351 281.18322751 -89.94848633 281.15405273 C-88.91855057 281.16091599 -87.88861481 281.16777924 -86.82746887 281.17485046 C-83.43301503 281.19310973 -80.03902352 281.18928356 -76.64453125 281.18359375 C-74.28374582 281.18815452 -71.92296173 281.19345978 -69.56217957 281.19947815 C-64.62025549 281.20840646 -59.67849307 281.20598749 -54.73657227 281.19604492 C-48.39419651 281.18452982 -42.0523754 281.20480754 -35.71007252 281.23396206 C-30.8382766 281.25227405 -25.966615 281.25204202 -21.09479332 281.24632454 C-18.75554308 281.24617085 -16.416284 281.25225423 -14.07706642 281.26461601 C-10.81379536 281.279437 -7.5515677 281.26891557 -4.28833008 281.25170898 C-3.31736389 281.26137695 -2.34639771 281.27104492 -1.3460083 281.28100586 C3.64342625 281.36279375 3.64342625 281.36279375 7.78364563 278.96083069 C9.16651345 275.57833156 9.48612036 272.28405232 8.6875 268.75 C5.76156031 263.55555399 1.82726288 259.68217301 -2.4375 255.5625 C-3.69235158 254.34215045 -4.9450471 253.11957898 -6.1953125 251.89453125 C-6.74590332 251.36190674 -7.29649414 250.82928223 -7.86376953 250.28051758 C-10.3315251 247.67344652 -11.28341884 245.94629781 -11.8125 242.375 C-11.3125 238.75 -11.3125 238.75 -9.125 236.3125 C-7.88163023 235.41882798 -6.60366177 234.57311563 -5.3125 233.75 C-4.260625 233.07324219 -3.20875 232.39648438 -2.125 231.69921875 C6.84679276 226.03023575 6.84679276 226.03023575 10.6875 224.75 C10.6875 224.09 10.6875 223.43 10.6875 222.75 C11.80125 222.37875 11.80125 222.37875 12.9375 222 C15.93723455 220.6364843 17.60827267 219.29127785 19.6875 216.75 C19.6875 215.76 19.6875 214.77 19.6875 213.75 C20.3475 213.75 21.0075 213.75 21.6875 213.75 C23.01572422 209.44999355 24.0473969 206.03534608 22.8125 201.625 C18.04539006 195.17538067 13.07072927 191.57477885 5.515625 188.79296875 C4.81937515 188.53496994 4.12312531 188.27697113 3.40577698 188.01115417 C-4.68595032 185.11776092 -12.97852296 183.32205913 -21.375 181.5625 C-22.90973891 181.23089752 -24.44424526 180.89821679 -25.97851562 180.56445312 C-31.86279095 179.29279441 -37.74302883 178.02279097 -43.66748047 176.95068359 C-44.699589 176.7595826 -44.699589 176.7595826 -45.75254822 176.56462097 C-47.62291599 176.22179633 -49.49583836 175.89299281 -51.36889648 175.56518555 C-54.34827978 174.74009134 -55.56355079 174.25744727 -57.3125 171.75 C-57.91577118 168.26443316 -58.04142071 165.90117576 -56.10546875 162.84375 C-53.49386055 159.72304349 -50.73391239 156.98707734 -47.3125 154.75 C-47.85882381 150.92573331 -49.57333597 149.35768415 -52.3125 146.75 C-54.15143824 148.03367442 -55.98352625 149.32716761 -57.8125 150.625 C-58.8334375 151.34429687 -59.854375 152.06359375 -60.90625 152.8046875 C-61.7003125 153.44664062 -62.494375 154.08859375 -63.3125 154.75 C-63.3125 155.41 -63.3125 156.07 -63.3125 156.75 C-63.9725 156.75 -64.6325 156.75 -65.3125 156.75 C-65.3125 157.41 -65.3125 158.07 -65.3125 158.75 C-65.9725 158.75 -66.6325 158.75 -67.3125 158.75 C-70.87161979 162.71978746 -70.88553979 167.0109144 -70.71484375 172.09765625 C-70.11042448 176.08212888 -68.42289574 178.37572971 -65.3125 180.75 C-58.50718272 185.58442045 -51.09767529 187.23909427 -43.03970337 188.83337402 C-39.47439847 189.53996533 -35.91982207 190.29764743 -32.36328125 191.046875 C-31.6656517 191.19239807 -30.96802216 191.33792114 -30.24925232 191.487854 C-24.50442986 192.69090391 -18.80438643 194.01992446 -13.125 195.5 C-12.38523926 195.68626953 -11.64547852 195.87253906 -10.88330078 196.06445312 C-6.91761787 197.1179409 -3.76358314 198.55442974 -0.3125 200.75 C0.3475 200.75 1.0075 200.75 1.6875 200.75 C1.6875 201.41 1.6875 202.07 1.6875 202.75 C2.3475 202.75 3.0075 202.75 3.6875 202.75 C3.6875 209.55403458 3.6875 209.55403458 1.33203125 212.37109375 C-3.36035749 216.06297317 -8.74954694 218.54434157 -14.09082031 221.14697266 C-22.47767253 225.25016905 -32.51163735 230.45909466 -36.0703125 239.72265625 C-37.08136288 245.13285139 -35.3537323 249.7680093 -33.3125 254.75 C-32.6525 254.75 -31.9925 254.75 -31.3125 254.75 C-31.003125 255.53375 -30.69375 256.3175 -30.375 257.125 C-29.38374962 259.67330128 -29.38374962 259.67330128 -28.3125 261.75 C-27.6525 261.75 -26.9925 261.75 -26.3125 261.75 C-26.3125 262.41 -26.3125 263.07 -26.3125 263.75 C-25.6525 263.75 -24.9925 263.75 -24.3125 263.75 C-24.3125 264.41 -24.3125 265.07 -24.3125 265.75 C-23.6525 265.75 -22.9925 265.75 -22.3125 265.75 C-22.3125 266.41 -22.3125 267.07 -22.3125 267.75 C-21.6525 267.75 -20.9925 267.75 -20.3125 267.75 C-20.3125 268.41 -20.3125 269.07 -20.3125 269.75 C-19.6525 269.75 -18.9925 269.75 -18.3125 269.75 C-18.3125 270.41 -18.3125 271.07 -18.3125 271.75 C-28.43069288 271.64254004 -38.54881373 271.52991502 -48.66687489 271.41066074 C-53.36488812 271.35545173 -58.0629076 271.3020349 -62.76098633 271.25268555 C-67.29327035 271.20501226 -71.82547838 271.15266828 -76.35767174 271.09705925 C-78.08843791 271.07664915 -79.8192249 271.05793384 -81.55002785 271.04092598 C-83.97068447 271.01685224 -86.39119754 270.9868017 -88.81176758 270.95532227 C-89.53033936 270.9495668 -90.24891113 270.94381134 -90.98925781 270.93788147 C-94.03154314 270.89278893 -96.40263349 270.7199555 -99.3125 269.75 C-100.3795025 266.54899249 -100.43828984 264.26931459 -100.43948364 260.90466309 C-100.44230347 259.68482224 -100.44512329 258.46498138 -100.44802856 257.20817566 C-100.44608421 255.85427842 -100.44403604 254.50038132 -100.44189453 253.14648438 C-100.44324938 251.7223557 -100.44502978 250.29822739 -100.44720459 248.87409973 C-100.45176898 245.00435593 -100.44999343 241.13463876 -100.4468255 237.26489449 C-100.44429679 233.21838432 -100.44664087 229.17187646 -100.44821167 225.12536621 C-100.45003186 218.32950429 -100.44763098 211.53365324 -100.44287109 204.73779297 C-100.43742876 196.87671396 -100.43919152 189.01566088 -100.4446975 181.1545825 C-100.44923289 174.4097304 -100.44987708 167.66488611 -100.44725883 160.92003298 C-100.44569841 156.88965206 -100.44549589 152.85928334 -100.44879532 148.8289032 C-100.4516802 145.04014049 -100.44968693 141.25141129 -100.44390106 137.46265221 C-100.44257679 136.07066084 -100.44296196 134.67866666 -100.44516373 133.28667641 C-100.4478882 131.38956425 -100.44386906 129.49244595 -100.43948364 127.59533691 C-100.43910662 126.53271889 -100.43872959 125.47010086 -100.43834114 124.37528229 C-100.3125 121.75 -100.3125 121.75 -99.3125 118.75 C-96.33140155 117.60422931 -93.27731948 117.56252172 -90.109375 117.43359375 C-89.1296875 117.39169922 -88.15 117.34980469 -87.140625 117.30664062 C-86.12484375 117.26732422 -85.1090625 117.22800781 -84.0625 117.1875 C-83.03125 117.14431641 -82 117.10113281 -80.9375 117.05664062 C-78.3959613 116.95074318 -75.85432804 116.84866557 -73.3125 116.75 C-76.0701746 110.71818581 -76.0701746 110.71818581 -80.3125 105.75 C-83.45551408 105.06347133 -86.48432768 105.14257654 -89.6875 105.25 C-90.52539062 105.24742188 -91.36328125 105.24484375 -92.2265625 105.2421875 C-100.18061395 105.3672512 -104.9441443 107.76811793 -110.3125 113.75 Z " fill="#082E4A" transform="translate(175.3125,-0.75)"/>
<path d="M0 0 C1.41152344 0.07250977 1.41152344 0.07250977 2.8515625 0.14648438 C4.32882813 0.2305957 4.32882813 0.2305957 5.8359375 0.31640625 C6.82851562 0.36861328 7.82109375 0.42082031 8.84375 0.47460938 C11.29978318 0.60449574 13.7554311 0.73946789 16.2109375 0.87890625 C16.5409375 1.86890625 16.8709375 2.85890625 17.2109375 3.87890625 C16.5509375 4.86890625 15.8909375 5.85890625 15.2109375 6.87890625 C14.5509375 6.87890625 13.8909375 6.87890625 13.2109375 6.87890625 C12.8809375 8.85890625 12.5509375 10.83890625 12.2109375 12.87890625 C11.2209375 12.38390625 11.2209375 12.38390625 10.2109375 11.87890625 C11.26968824 8.47577887 12.21995904 5.86537394 14.2109375 2.87890625 C3.5346455 1.48117102 3.5346455 1.48117102 -6.09765625 4.66015625 C-7.63399437 7.07855621 -7.63399437 7.07855621 -8.7890625 10.87890625 C-2.8490625 11.20890625 3.0909375 11.53890625 9.2109375 11.87890625 C8.2109375 15.87890625 8.2109375 15.87890625 7.1484375 18.12890625 C5.44786951 23.11723903 5.62518558 27.27579574 7.3984375 32.12890625 C10.02531783 36.11451779 12.68035342 38.36871156 17.2109375 39.87890625 C18.97433893 39.99463592 20.74158519 40.055397 22.50854492 40.08422852 C23.58943893 40.10417374 24.67033295 40.12411896 25.78398132 40.14466858 C27.53253166 40.16973732 27.53253166 40.16973732 29.31640625 40.1953125 C30.51074783 40.2160936 31.70508942 40.23687469 32.93562317 40.25828552 C36.75650193 40.32374901 40.57745026 40.38265135 44.3984375 40.44140625 C46.98633536 40.48459449 49.57422615 40.52820888 52.16210938 40.57226562 C58.51164489 40.67942717 64.86124984 40.78119965 71.2109375 40.87890625 C71.25765135 56.32548044 71.29292333 71.77204934 71.31456184 87.21867752 C71.32487588 94.39076346 71.33893864 101.56280551 71.36181641 108.73486328 C71.3817464 114.98578602 71.39465301 121.23667698 71.39911449 127.48763061 C71.40172254 130.79768948 71.40890253 134.10763619 71.42239761 137.4176712 C71.43686435 141.11216172 71.43891744 144.80646239 71.43798828 148.50097656 C71.44517883 149.59933334 71.45236938 150.69769012 71.45977783 151.82933044 C71.4570285 152.83611343 71.45427917 153.84289642 71.45144653 154.88018799 C71.45329012 155.75404774 71.45513371 156.62790749 71.45703316 157.52824783 C71.19192963 160.06046577 70.4860185 161.69426581 69.2109375 163.87890625 C68.5509375 163.87890625 67.8909375 163.87890625 67.2109375 163.87890625 C67.2109375 164.53890625 67.2109375 165.19890625 67.2109375 165.87890625 C64.55186166 167.20844417 62.54528382 166.99876656 59.56787109 166.99243164 C58.38679779 166.99235611 57.20572449 166.99228058 55.98886108 166.99220276 C54.70863068 166.98704147 53.42840027 166.98188019 52.109375 166.9765625 C50.80263824 166.97514755 49.49590149 166.9737326 48.14956665 166.97227478 C44.67417492 166.96845519 41.19882493 166.95862967 37.72344971 166.9475708 C34.17761805 166.93734468 30.63177965 166.93277458 27.0859375 166.92773438 C20.12758701 166.91700691 13.16926426 166.89993717 6.2109375 166.87890625 C7.2009375 171.33390625 7.2009375 171.33390625 8.2109375 175.87890625 C27.6809375 175.87890625 47.1509375 175.87890625 67.2109375 175.87890625 C67.2109375 176.20890625 67.2109375 176.53890625 67.2109375 176.87890625 C47.4109375 176.87890625 27.6109375 176.87890625 7.2109375 176.87890625 C6.8809375 178.52890625 6.5509375 180.17890625 6.2109375 181.87890625 C2.50827489 189.72855098 -3.52360774 195.00410614 -10.1015625 200.50390625 C-13.34587815 203.32032988 -15.45257867 205.6912569 -16.7890625 209.87890625 C-16.7890625 217.44963378 -11.45950704 224.0181726 -7.1640625 229.87890625 C-1.35348724 238.10738974 0.3214624 245.83482549 -0.7890625 255.87890625 C-2.59497043 264.09287457 -5.74291097 271.53281967 -9.7890625 278.87890625 C-8.7990625 279.20890625 -7.8090625 279.53890625 -6.7890625 279.87890625 C-14.83144192 283.21500438 -22.89332697 284.4779549 -31.2890625 281.56640625 C-34.28287526 280.12296081 -35.63756327 279.2206295 -37.7890625 276.87890625 C-37.0465625 276.21890625 -36.3040625 275.55890625 -35.5390625 274.87890625 C-29.39567162 268.70070862 -26.86384644 260.03480826 -26.4140625 251.50390625 C-26.70672763 242.4620942 -31.59032632 235.21804093 -36.52709961 227.96411133 C-41.21415267 221.01828585 -44.31027978 214.43095971 -42.7890625 205.87890625 C-39.62362939 197.67360709 -33.76658259 192.87356733 -26.7890625 187.87890625 C-25.26588136 186.75708708 -23.74482113 185.63237856 -22.2265625 184.50390625 C-21.58589844 184.04242188 -20.94523437 183.5809375 -20.28515625 183.10546875 C-18.64505849 181.93102176 -18.64505849 181.93102176 -17.7890625 179.87890625 C-17.1290625 179.87890625 -16.4690625 179.87890625 -15.7890625 179.87890625 C-15.7890625 179.21890625 -15.7890625 178.55890625 -15.7890625 177.87890625 C-50.1090625 177.54890625 -84.4290625 177.21890625 -119.7890625 176.87890625 C-119.7890625 176.54890625 -119.7890625 176.21890625 -119.7890625 175.87890625 C-118.47805573 175.87304001 -117.16704895 175.86717377 -115.8163147 175.86112976 C-103.48468555 175.8040131 -91.15323463 175.73130989 -78.82178688 175.64319134 C-72.48146449 175.59838957 -66.14120783 175.55915523 -59.80078125 175.5324707 C-53.68636117 175.50653541 -47.57219269 175.4662029 -41.4579277 175.41571999 C-39.12068171 175.39898491 -36.78339214 175.38751219 -34.44609451 175.38129234 C-31.18205389 175.3717233 -27.91866672 175.34375078 -24.65478516 175.3112793 C-23.68014816 175.31271439 -22.70551117 175.31414948 -21.70133972 175.31562805 C-20.81510422 175.3030899 -19.92886871 175.29055176 -19.01577759 175.27763367 C-17.85708381 175.27072022 -17.85708381 175.27072022 -16.67498207 175.26366711 C-14.37821106 175.02569877 -14.37821106 175.02569877 -12.7890625 171.87890625 C-12.18998167 165.78825116 -12.89907183 162.69655423 -16.7890625 157.87890625 C-19.08141664 155.39558058 -21.48374718 153.03904074 -23.9140625 150.69140625 C-25.16891408 149.4710567 -26.4216096 148.24848523 -27.671875 147.0234375 C-28.22246582 146.49081299 -28.77305664 145.95818848 -29.34033203 145.40942383 C-31.76727215 142.84547243 -32.75791468 141.0623323 -33.3515625 137.56640625 C-32.7119132 133.37314974 -31.53456123 132.02718968 -28.19921875 129.5 C-13.8950866 119.87890625 -13.8950866 119.87890625 -9.7890625 119.87890625 C-9.7890625 119.21890625 -9.7890625 118.55890625 -9.7890625 117.87890625 C-7.81611294 116.26549192 -5.73436599 114.8605882 -3.63671875 113.4140625 C-1.51028979 111.92191019 -1.51028979 111.92191019 -0.7890625 108.87890625 C-0.1290625 108.87890625 0.5309375 108.87890625 1.2109375 108.87890625 C2.0161652 104.51321391 2.55702393 100.98205674 1.2109375 96.69140625 C-3.17283933 90.52672009 -7.83364999 87.5944807 -14.9296875 84.953125 C-15.97744606 84.562743 -15.97744606 84.562743 -17.04637146 84.16447449 C-25.14558854 81.25225332 -33.44224902 79.45365537 -41.8515625 77.69140625 C-43.38630141 77.35980377 -44.92080776 77.02712304 -46.45507812 76.69335938 C-55.25811496 74.78387559 -55.25811496 74.78387559 -64.10888672 73.11474609 C-64.79244736 72.99185715 -65.476008 72.8689682 -66.18028259 72.74235535 C-68.03395542 72.41304495 -69.89080038 72.10173286 -71.74780273 71.79174805 C-75.18315343 70.76061886 -76.61182728 69.69779106 -78.7890625 66.87890625 C-79.4765625 63.62890625 -79.4765625 63.62890625 -78.7890625 59.87890625 C-76.01516706 55.79921428 -72.88875456 52.61203429 -68.7890625 49.87890625 C-68.1290625 48.88890625 -67.4690625 47.89890625 -66.7890625 46.87890625 C-62.7890625 52.62890625 -62.7890625 52.62890625 -62.7890625 54.87890625 C-62.0053125 55.18828125 -61.2215625 55.49765625 -60.4140625 55.81640625 C-57.7890625 56.87890625 -57.7890625 56.87890625 -55.7890625 57.87890625 C-50.47803257 58.51622984 -47.32904783 57.62260054 -42.98779297 54.78759766 C-38.78992595 51.14347992 -35.99962405 46.36832551 -33.0614624 41.70132446 C-31.13350931 38.63915161 -29.1534173 35.61090868 -27.1796875 32.578125 C-26.79847748 31.98915939 -26.41726746 31.40019379 -26.02450562 30.79338074 C-21.95774852 24.53680163 -17.52088652 18.64507371 -12.7890625 12.87890625 C-14.1090625 12.21890625 -15.4290625 11.55890625 -16.7890625 10.87890625 C-16.30078125 4.82421875 -16.30078125 4.82421875 -15.7890625 2.87890625 C-14.7990625 2.21890625 -13.8090625 1.55890625 -12.7890625 0.87890625 C-12.7890625 1.86890625 -12.7890625 2.85890625 -12.7890625 3.87890625 C-11.4690625 4.53890625 -10.1490625 5.19890625 -8.7890625 5.87890625 C-8.7890625 5.21890625 -8.7890625 4.55890625 -8.7890625 3.87890625 C-8.1290625 3.87890625 -7.4690625 3.87890625 -6.7890625 3.87890625 C-6.7890625 2.88890625 -6.7890625 1.89890625 -6.7890625 0.87890625 C-4.28805676 -0.37159662 -2.78563198 -0.15102824 0 0 Z " fill="#3999CB" transform="translate(195.7890625,104.12109375)"/>
<path d="M0 0 C0.99 0 1.98 0 3 0 C3.680625 1.8253125 3.680625 1.8253125 4.375 3.6875 C6.5779002 8.67136642 9.6954319 12.73090382 13.06152344 16.96044922 C17.39482093 22.41950729 21.22109577 28.14164289 25 34 C23.68755593 36.62488813 22.06736727 37.45401541 19.625 39.0625 C18.83351562 39.58972656 18.04203125 40.11695313 17.2265625 40.66015625 C15 42 15 42 12 43 C12 43.66 12 44.32 12 45 C11.34 45 10.68 45 10 45 C10 45.66 10 46.32 10 47 C9.34 47 8.68 47 8 47 C5.56878955 52.36811267 5.32342798 57.18323798 6 63 C8.61229355 68.2245871 13.79923238 70.7214842 19 73 C23.38183261 74.253201 27.80486126 75.19926138 32.27224731 76.08309937 C35.84045565 76.79054743 39.39768763 77.55024166 42.95703125 78.30078125 C43.6550737 78.44651077 44.35311615 78.5922403 45.0723114 78.74238586 C50.76887085 79.9351084 56.42697806 81.23436603 62.0625 82.6875 C62.78550293 82.86539063 63.50850586 83.04328125 64.25341797 83.2265625 C69.05399408 84.49102571 72.81453553 86.4147001 77 89 C77 89.66 77 90.32 77 91 C77.66 91 78.32 91 79 91 C79.91579774 93.91390191 80.16820038 95.53144179 79.125 98.4375 C74.59452328 103.90072193 68.28893568 106.92380285 62 110 C48.72188714 116.36040765 48.72188714 116.36040765 40.34375 127.90625 C39.42977399 133.1408399 40.58538617 137.94947789 42 143 C42.66 143 43.32 143 44 143 C47 147.38461538 47 147.38461538 47 150 C47.66 150 48.32 150 49 150 C49 150.66 49 151.32 49 152 C49.66 152 50.32 152 51 152 C51 152.66 51 153.32 51 154 C51.66 154 52.32 154 53 154 C53 154.66 53 155.32 53 156 C53.66 156 54.32 156 55 156 C55 156.66 55 157.32 55 158 C55.66 158 56.32 158 57 158 C57 158.66 57 159.32 57 160 C46.91654045 160.11588734 36.8332395 160.204712 26.74924946 160.25906086 C22.06672443 160.28514676 17.38465525 160.32052611 12.70239258 160.37719727 C8.18307712 160.43155345 3.66419989 160.46142812 -0.85541725 160.47438622 C-2.57903759 160.48361968 -4.30263414 160.50165089 -6.02606773 160.52865028 C-8.44197649 160.56499028 -10.85607838 160.56994354 -13.2722168 160.56762695 C-14.33928864 160.59459152 -14.33928864 160.59459152 -15.42791748 160.62210083 C-18.83073772 160.58683322 -20.98054716 160.01105004 -23.94354248 158.32794189 C-27.26676602 152.95000691 -26.68744156 147.35188945 -26.63110352 141.18530273 C-26.63624405 139.76249296 -26.64352634 138.33968956 -26.65278625 136.91690063 C-26.67129035 133.05937295 -26.65836926 129.202537 -26.63869596 125.34503818 C-26.62230282 121.30700811 -26.63112312 117.26902163 -26.63621521 113.23097229 C-26.64073493 106.45115108 -26.6248728 99.67160588 -26.59692383 92.8918457 C-26.56485938 85.05332119 -26.56489294 77.21529409 -26.5821386 69.3767342 C-26.59800033 61.83482846 -26.59127331 54.29310511 -26.57420158 46.75120735 C-26.56732877 43.5419231 -26.5683658 40.33278494 -26.57574654 37.12350273 C-26.583406 33.34517185 -26.5712952 29.56740739 -26.54389763 25.78917313 C-26.53700951 24.40245432 -26.53692048 23.01568264 -26.54411316 21.62896538 C-26.55279743 19.73668244 -26.53442625 17.84433284 -26.5146637 15.95213318 C-26.51185678 14.89303458 -26.50904985 13.83393599 -26.50615788 12.74274349 C-25.87394833 9.31695739 -24.67314533 8.15924004 -22 6 C-19.59458071 4.79729036 -17.89633409 4.79683337 -15.2109375 4.68359375 C-13.79941406 4.62075195 -13.79941406 4.62075195 -12.359375 4.55664062 C-10.88210937 4.49766602 -10.88210937 4.49766602 -9.375 4.4375 C-8.38242188 4.39431641 -7.38984375 4.35113281 -6.3671875 4.30664062 C-3.91160162 4.20038931 -1.45591297 4.09835036 1 4 C0.67 2.68 0.34 1.36 0 0 Z " fill="#3999CB" transform="translate(100,111)"/>
<path d="M0 0 C0.85980469 0.42410156 1.71960938 0.84820312 2.60546875 1.28515625 C12.97464508 6.91682691 19.01220077 15.01747229 23 26 C23.38671875 27.05767578 23.38671875 27.05767578 23.78125 28.13671875 C26.97263414 39.15959161 25.07264996 50.73702873 19.84570312 60.71484375 C15.51691225 68.35127484 10.05224867 75.22622403 4.6953125 82.15625 C1.45933768 86.3539135 -1.58279758 90.63847815 -4.5 95.0625 C-4.89783691 95.66215576 -5.29567383 96.26181152 -5.70556641 96.87963867 C-7.52995497 99.657913 -9.27220996 102.46439019 -10.953125 105.33203125 C-11.54609375 106.33621094 -12.1390625 107.34039062 -12.75 108.375 C-13.23984375 109.24898438 -13.7296875 110.12296875 -14.234375 111.0234375 C-16 113 -16 113 -18.890625 114.1015625 C-22 114 -22 114 -24.62890625 111.9765625 C-27.06523404 108.91810818 -29.0459244 105.7803849 -30.9375 102.375 C-34.57512734 96.06925208 -38.64452509 90.20520913 -43 84.375 C-43.60247559 83.56724121 -44.20495117 82.75948242 -44.82568359 81.92724609 C-46.00536395 80.34781548 -47.18568316 78.76886178 -48.36669922 77.19042969 C-64.37182938 55.72585154 -64.37182938 55.72585154 -65 44 C-65.07541016 42.75283203 -65.07541016 42.75283203 -65.15234375 41.48046875 C-65.62435199 27.98103306 -60.33461453 16.86160248 -51.23046875 7.07421875 C-37.78652969 -5.42793824 -16.35280933 -8.37201243 0 0 Z " fill="#42B069" transform="translate(164,40)"/>
<path d="M0 0 C3.7976563 0.54252233 4.56815406 1.60502072 7.0625 4.4375 C8.07424553 5.92333572 9.03190457 7.44718523 9.9375 9 C10.61425781 10.14662109 10.61425781 10.14662109 11.3046875 11.31640625 C13.38056321 15.0022389 15.39926414 18.71755081 17.42089844 22.43334961 C20.16403625 27.45332444 22.95616142 32.44561685 25.75 37.4375 C26.35287842 38.51894287 26.95575684 39.60038574 27.5769043 40.71459961 C30.4494461 45.85065439 33.3505709 50.96022289 36.3828125 56.00390625 C36.88981689 56.85275391 37.39682129 57.70160156 37.91918945 58.57617188 C38.85888922 60.14070974 39.80980018 61.69859362 40.77416992 63.24804688 C43.64500612 68.03991115 45.12770572 71.78831318 45.0625 77.4375 C43.56141663 79.6388092 43.56141663 79.6388092 41.0625 81.4375 C38.25525362 81.82705502 35.84177635 81.97503089 33.03686523 81.93920898 C32.23155365 81.94461197 31.42624207 81.95001495 30.5965271 81.95558167 C27.93767418 81.96807754 25.27990216 81.95157425 22.62109375 81.93359375 C20.77311649 81.9337487 18.92513889 81.93523707 17.0771637 81.93800354 C13.20599994 81.93938786 9.33520654 81.92682276 5.46411133 81.90405273 C0.49828926 81.8756481 -4.4669183 81.87841034 -9.43278599 81.89114285 C-13.24774947 81.8980919 -17.0625705 81.89031995 -20.87751579 81.87788582 C-22.70877474 81.87336518 -24.54004894 81.87303985 -26.37130928 81.87695122 C-28.92827942 81.87985639 -31.48439724 81.86339106 -34.04125977 81.84155273 C-34.80030106 81.84605438 -35.55934235 81.85055603 -36.34138489 81.85519409 C-39.27503897 81.8134889 -41.41860921 81.77054561 -43.92588806 80.16127014 C-45.49259585 77.49162578 -45.10195565 74.9999728 -44.65478516 72.03320312 C-43.24715399 66.93928394 -40.39138108 62.6464695 -37.625 58.1875 C-36.34661287 56.06573247 -35.06928944 53.94332371 -33.79296875 51.8203125 C-33.14763184 50.7571582 -32.50229492 49.69400391 -31.83740234 48.59863281 C-28.95366963 43.80056405 -26.19384451 38.93450839 -23.4375 34.0625 C-20.61108298 29.07568039 -17.75610229 24.11416344 -14.79296875 19.20703125 C-12.14200602 14.81244208 -9.7077807 10.33376745 -7.33203125 5.78515625 C-5.24000143 2.26327971 -4.13167883 0.61535642 0 0 Z " fill="#3898CA" transform="translate(254.9375,54.5625)"/>
<path d="M0 0 C0.99 0.33 1.98 0.66 3 1 C2.67 1.66 2.34 2.32 2 3 C5.33286621 5.17592476 5.33286621 5.17592476 9.0625 6.4375 C11 7 11 7 12.8125 8.875 C15.6538538 11.63517226 18.31666494 12.58333267 22 14 C22 14.66 22 15.32 22 16 C22.515625 16.2475 23.03125 16.495 23.5625 16.75 C24.366875 17.1625 25.17125 17.575 26 18 C27.155 18.5775 28.31 19.155 29.5 19.75 C33.16030712 21.87863354 35.05378987 24.18243398 37 28 C37.495 31.465 37.495 31.465 38 35 C57.47 35 76.94 35 97 35 C97 35.33 97 35.66 97 36 C77.2 36 57.4 36 37 36 C36.67 37.65 36.34 39.3 36 41 C32.29733739 48.84964473 26.26545476 54.12519989 19.6875 59.625 C16.44318435 62.44142363 14.33648383 64.81235065 13 69 C13 76.57072753 18.32955546 83.13926635 22.625 89 C28.43557526 97.22848349 30.1105249 104.95591924 29 115 C27.19409207 123.21396832 24.04615153 130.65391342 20 138 C20.99 138.33 21.98 138.66 23 139 C14.95762058 142.33609813 6.89573553 143.59904865 -1.5 140.6875 C-4.49381276 139.24405456 -5.84850077 138.34172325 -8 136 C-7.2575 135.34 -6.515 134.68 -5.75 134 C0.39339088 127.82180237 2.92521606 119.15590201 3.375 110.625 C3.08233487 101.58318795 -1.80126382 94.33913468 -6.73803711 87.08520508 C-11.42509017 80.1393796 -14.52121728 73.55205346 -13 65 C-9.83456689 56.79470084 -3.97752009 51.99466108 3 47 C4.52318114 45.87818083 6.04424137 44.75347231 7.5625 43.625 C8.20316406 43.16351563 8.84382813 42.70203125 9.50390625 42.2265625 C11.14400401 41.05211551 11.14400401 41.05211551 12 39 C12.66 39 13.32 39 14 39 C14 38.34 14 37.68 14 37 C-20.32 36.67 -54.64 36.34 -90 36 C-90 35.67 -90 35.34 -90 35 C-88.03348984 34.99120064 -88.03348984 34.99120064 -86.0272522 34.98222351 C-73.69562305 34.92510685 -61.36417213 34.85240364 -49.03272438 34.76428509 C-42.69240199 34.71948332 -36.35214533 34.68024898 -30.01171875 34.65356445 C-23.89729867 34.62762916 -17.78313019 34.58729665 -11.6688652 34.53681374 C-9.33161921 34.52007866 -6.99432964 34.50860594 -4.65703201 34.50238609 C-1.39299139 34.49281705 1.87039578 34.46484453 5.13427734 34.43237305 C6.10891434 34.43380814 7.08355133 34.43524323 8.08772278 34.4367218 C8.97395828 34.42418365 9.86019379 34.41164551 10.77328491 34.39872742 C11.54574743 34.39411845 12.31820995 34.38950949 13.11408043 34.38476086 C15.41085144 34.14679252 15.41085144 34.14679252 17 31 C17.59942736 24.90582183 16.88714273 21.82082616 13 17 C10.66692419 14.45346962 8.22418078 12.03380609 5.75 9.625 C5.1003125 8.98433594 4.450625 8.34367188 3.78125 7.68359375 C2.19199115 6.11770636 0.59823583 4.55671491 -1 3 C-0.67 2.01 -0.34 1.02 0 0 Z " fill="#4BB270" transform="translate(166,245)"/>
<path d="M0 0 C4.82326091 3.8764314 7.54736732 7.54569795 8.37109375 13.83203125 C8.52920876 20.92860495 7.77032082 25.60406333 3 31 C-2.75085929 36.33006471 -7.20922221 37.51502547 -14.953125 37.3828125 C-20.82621881 36.64491097 -24.39908548 33.68517318 -28.375 29.5 C-32.12775549 23.72653002 -32.65038534 18.7917289 -32 12 C-30.26049679 5.58558192 -26.39881171 1.66829049 -21 -2 C-14.03872239 -4.42252461 -6.30445117 -3.63718337 0 0 Z " fill="#052D47" transform="translate(156,63)"/>
<path d="M0 0 C0.99 0 1.98 0 3 0 C3 47.52 3 95.04 3 144 C8.52353971 146.76176985 10.24344447 147.37951872 16.01513672 147.43237305 C17.02594551 147.44766052 17.02594551 147.44766052 18.05717468 147.46325684 C20.26476518 147.49323594 22.47192073 147.50262909 24.6796875 147.51171875 C26.21812363 147.52857673 27.75654607 147.54672847 29.29495239 147.56611633 C33.32918014 147.61350137 37.36335241 147.64338477 41.39776611 147.66955566 C45.52049717 147.69941949 49.64303729 147.74592972 53.765625 147.79101562 C61.84365593 147.87691779 69.92170447 147.94432091 78 148 C78 147.34 78 146.68 78 146 C78.99 146 79.98 146 81 146 C81 146.66 81 147.32 81 148 C81.66 148 82.32 148 83 148 C83 148.66 83 149.32 83 150 C72.91654045 150.11588734 62.8332395 150.204712 52.74924946 150.25906086 C48.06672443 150.28514676 43.38465525 150.32052611 38.70239258 150.37719727 C34.18307712 150.43155345 29.66419989 150.46142812 25.14458275 150.47438622 C23.42096241 150.48361968 21.69736586 150.50165089 19.97393227 150.52865028 C17.55802351 150.56499028 15.14392162 150.56994354 12.7277832 150.56762695 C11.66071136 150.59459152 11.66071136 150.59459152 10.57208252 150.62210083 C7.17078719 150.58684903 5.01667844 150.00943886 2.05249023 148.33190918 C-1.27385885 142.93208176 -0.6527733 137.30597293 -0.56762695 131.12182617 C-0.56621592 129.69253591 -0.56700954 128.26324202 -0.56983948 126.83395386 C-0.57127293 122.96008801 -0.54189558 119.08699767 -0.50696969 115.21331191 C-0.47569392 111.16278128 -0.4727745 107.11223248 -0.46684265 103.06159973 C-0.45130773 95.39403802 -0.41028424 87.72683315 -0.3600952 80.05942851 C-0.30419062 71.32917848 -0.27671247 62.59891132 -0.25161803 53.86852682 C-0.19936791 35.91214897 -0.11143265 17.95610319 0 0 Z " fill="#569ABF" transform="translate(74,121)"/>
<path d="M0 0 C3.81160303 0.54451472 4.5579295 1.58830836 7.0625 4.4375 C8.22128105 6.10926951 9.32654883 7.8194174 10.375 9.5625 C11.17357422 10.86574219 11.17357422 10.86574219 11.98828125 12.1953125 C12.34277344 12.93523437 12.69726562 13.67515625 13.0625 14.4375 C12.7325 15.0975 12.4025 15.7575 12.0625 16.4375 C11.0725 16.7675 10.0825 17.0975 9.0625 17.4375 C8.4025 18.4275 7.7425 19.4175 7.0625 20.4375 C6.7325 19.7775 6.4025 19.1175 6.0625 18.4375 C5.4025 18.7675 4.7425 19.0975 4.0625 19.4375 C4.7225 20.0975 5.3825 20.7575 6.0625 21.4375 C6.28955078 24.14306641 6.28955078 24.14306641 6.2578125 27.5390625 C6.25136719 28.75078125 6.24492187 29.9625 6.23828125 31.2109375 C6.22152344 32.48195312 6.20476562 33.75296875 6.1875 35.0625 C6.17847656 36.34125 6.16945313 37.62 6.16015625 38.9375 C6.13652303 42.10435167 6.10357629 45.27083424 6.0625 48.4375 C5.7325 48.4375 5.4025 48.4375 5.0625 48.4375 C4.5675 35.5675 4.5675 35.5675 4.0625 22.4375 C-1.41575081 21.9902864 -1.41575081 21.9902864 -3.9375 23.4375 C-3.9375 32.3475 -3.9375 41.2575 -3.9375 50.4375 C-4.5975 50.4375 -5.2575 50.4375 -5.9375 50.4375 C-6.90909933 42.75145526 -7.04670422 35.17886601 -6.9375 27.4375 C-7.5975 27.1075 -8.2575 26.7775 -8.9375 26.4375 C-8.9375 25.4475 -8.9375 24.4575 -8.9375 23.4375 C-9.5975 23.4375 -10.2575 23.4375 -10.9375 23.4375 C-10.9375 22.4475 -10.9375 21.4575 -10.9375 20.4375 C-11.9275 20.7675 -12.9175 21.0975 -13.9375 21.4375 C-13.9375 16.79477867 -12.41184259 14.23179407 -10.125 10.375 C-9.76857422 9.75044922 -9.41214844 9.12589844 -9.04492188 8.48242188 C-4.50109582 0.67037597 -4.50109582 0.67037597 0 0 Z " fill="#3995C5" transform="translate(254.9375,54.5625)"/>
<path d="M0 0 C1.423125 0.37125 1.423125 0.37125 2.875 0.75 C4.98478822 4.96957643 4.05992875 10.55154459 4.0625 15.1875 C4.07474609 16.34572266 4.08699219 17.50394531 4.09960938 18.69726562 C4.10250977 20.36112305 4.10250977 20.36112305 4.10546875 22.05859375 C4.10957764 23.07751709 4.11368652 24.09644043 4.11791992 25.14624023 C3.875 27.75 3.875 27.75 1.875 30.75 C-1.125 31.125 -1.125 31.125 -4.125 30.75 C-7.38053973 25.8666904 -6.4528336 20.42533488 -6.4375 14.6875 C-6.45361328 13.47771484 -6.46972656 12.26792969 -6.48632812 11.02148438 C-6.48697266 9.86841797 -6.48761719 8.71535156 -6.48828125 7.52734375 C-6.49126221 6.46765381 -6.49424316 5.40796387 -6.49731445 4.31616211 C-6.37445068 3.46932861 -6.25158691 2.62249512 -6.125 1.75 C-3.125 -0.25 -3.125 -0.25 0 0 Z " fill="#042E4C" transform="translate(256.125,76.25)"/>
<path d="M0 0 C0.33 0 0.66 0 1 0 C1.09339065 15.46379634 1.16395328 30.92757162 1.20724869 46.39158344 C1.22788478 53.57161695 1.25602505 60.75147536 1.30175781 67.93139648 C1.34159393 74.18853644 1.3674252 80.44554961 1.37635398 86.70281285 C1.38157436 90.01688791 1.39595287 93.33051505 1.42292023 96.64449501 C1.45181876 100.34175038 1.45596154 104.03824618 1.45410156 107.7355957 C1.47567322 109.38852379 1.47567322 109.38852379 1.49768066 111.07484436 C1.49218201 112.08025269 1.48668335 113.08566101 1.48101807 114.12153625 C1.48470524 114.9963178 1.48839241 115.87109934 1.49219131 116.77238941 C1 119 1 119 -1.03006363 120.80490398 C-1.68014263 121.19928567 -2.33022163 121.59366735 -3 122 C-2.91615805 106.5360538 -2.82104621 91.07220745 -2.71247292 75.60841656 C-2.66232531 68.4285006 -2.6158827 61.24859619 -2.578125 54.06860352 C-2.54521066 47.81140234 -2.50538264 41.55429016 -2.45720994 35.29718715 C-2.43193923 31.98329172 -2.41119081 28.66946746 -2.39665604 25.35550499 C-2.37985421 21.6583406 -2.35083358 17.96146404 -2.31884766 14.2644043 C-2.31668747 13.16245224 -2.31452728 12.06050018 -2.31230164 10.92515564 C-2.30113815 9.91974731 -2.28997467 8.91433899 -2.2784729 7.87846375 C-2.27294214 7.0036822 -2.26741138 6.12890066 -2.26171303 5.22761059 C-2 3 -2 3 0 0 Z " fill="#88C3DF" transform="translate(266,145)"/>
<path d="M0 0 C1.00797134 0.48608231 2.01594269 0.97216461 3.05445862 1.47297668 C6.80879051 3.07441149 10.02334936 3.39470963 14.12866211 3.43237305 C15.13968994 3.44766052 15.13968994 3.44766052 16.17114258 3.46325684 C18.37329654 3.49317148 20.57501407 3.50261907 22.77734375 3.51171875 C24.3143506 3.52858153 25.85134379 3.54673391 27.38832092 3.56611633 C31.41431409 3.61344928 35.44025186 3.64336621 39.46643066 3.66955566 C43.58254938 3.69944597 47.69847757 3.74594701 51.81445312 3.79101562 C59.8762081 3.87685842 67.93798075 3.94428773 76 4 C76 3.34 76 2.68 76 2 C76.99 2 77.98 2 79 2 C79 2.66 79 3.32 79 4 C79.66 4 80.32 4 81 4 C81 4.66 81 5.32 81 6 C70.89922487 6.0926561 60.79855075 6.16374267 50.69743729 6.20724869 C46.00712327 6.22812886 41.31709987 6.25645422 36.62695312 6.30175781 C32.10117484 6.34520044 27.57567619 6.36913387 23.04970551 6.37950897 C21.32249295 6.38690321 19.5952958 6.40134245 17.86820221 6.42292023 C15.44988361 6.45193394 13.03272229 6.45595697 10.61425781 6.45410156 C9.54179306 6.47567322 9.54179306 6.47567322 8.44766235 6.49768066 C4.92629402 6.468423 3.29056093 6.23804293 0.52410889 3.97161865 C0.02115295 3.3209845 -0.48180298 2.67035034 -1 2 C-0.67 1.34 -0.34 0.68 0 0 Z " fill="#74B4D1" transform="translate(76,265)"/>
<path d="M0 0 C2.5003789 2.17512636 3.47663893 3.64834085 3.9375 6.9375 C4.10572266 7.94103516 4.10572266 7.94103516 4.27734375 8.96484375 C3.84596552 12.13030939 2.51206006 13.0798469 0 15 C-2.82482901 15.37411527 -5.25324841 15.5073417 -8.07324219 15.45410156 C-8.88337265 15.45468567 -9.69350311 15.45526978 -10.52818298 15.45587158 C-13.20151871 15.45308852 -15.87373447 15.4219869 -18.546875 15.390625 C-20.40203238 15.38316338 -22.25719764 15.37747007 -24.11236572 15.37347412 C-28.99190077 15.35821155 -33.87095853 15.31892436 -38.75030518 15.2746582 C-43.73060652 15.23371894 -48.71098509 15.21546598 -53.69140625 15.1953125 C-63.46114704 15.15243073 -73.23053381 15.08417182 -83 15 C-83 14.67 -83 14.34 -83 14 C-81.97491837 13.98969254 -80.94983673 13.97938507 -79.89369202 13.96876526 C-70.25486762 13.87120331 -60.61611027 13.76848602 -50.97739506 13.66066074 C-46.02149288 13.60538798 -41.06558486 13.55196116 -36.10961914 13.50268555 C-31.3309593 13.45510604 -26.55237358 13.40276582 -21.7738018 13.34705925 C-19.94648511 13.32660653 -18.11914806 13.30789839 -16.29179573 13.29092598 C-13.74141166 13.26694626 -11.19116903 13.23688336 -8.64086914 13.20532227 C-7.87770386 13.1995668 -7.11453857 13.19381134 -6.32824707 13.18788147 C-2.8730815 13.44732933 -2.8730815 13.44732933 0 12 C0.07244053 9.98035801 0.08377188 7.95832876 0.0625 5.9375 C0.05347656 4.83277344 0.04445313 3.72804688 0.03515625 2.58984375 C0.02355469 1.73519531 0.01195312 0.88054687 0 0 Z " fill="#438BB3" transform="translate(296,121)"/>
<path d="M0 0 C3.0625 0.3125 3.0625 0.3125 4.9375 1.4375 C6.59104531 4.19340884 6.45615568 6.16325452 6.0625 9.3125 C4.9375 11.1875 4.9375 11.1875 3.0625 12.3125 C0.0625 12.8125 0.0625 12.8125 -2.9375 12.3125 C-4.875 10.125 -4.875 10.125 -5.9375 7.3125 C-5.62498665 2.83314203 -4.76507192 0.50692254 0 0 Z " fill="#052D49" transform="translate(254.9375,111.6875)"/>
<path d="M0 0 C1.41152344 0.07250977 1.41152344 0.07250977 2.8515625 0.14648438 C3.83640625 0.20255859 4.82125 0.25863281 5.8359375 0.31640625 C6.82851562 0.36861328 7.82109375 0.42082031 8.84375 0.47460938 C11.29978318 0.60449574 13.7554311 0.73946789 16.2109375 0.87890625 C16.7059375 2.36390625 16.7059375 2.36390625 17.2109375 3.87890625 C16.5509375 4.86890625 15.8909375 5.85890625 15.2109375 6.87890625 C14.5509375 6.87890625 13.8909375 6.87890625 13.2109375 6.87890625 C12.8809375 8.85890625 12.5509375 10.83890625 12.2109375 12.87890625 C11.5509375 12.54890625 10.8909375 12.21890625 10.2109375 11.87890625 C11.26968824 8.47577887 12.21995904 5.86537394 14.2109375 2.87890625 C3.58555952 1.45693213 3.58555952 1.45693213 -5.95703125 4.625 C-7.21523524 6.76523077 -7.21523524 6.76523077 -7.9375 9.03125 C-8.7890625 10.87890625 -8.7890625 10.87890625 -10.75 11.66015625 C-13.01732264 11.90339393 -14.6300706 11.57286793 -16.7890625 10.87890625 C-16.30078125 4.82421875 -16.30078125 4.82421875 -15.7890625 2.87890625 C-14.7990625 2.21890625 -13.8090625 1.55890625 -12.7890625 0.87890625 C-12.7890625 1.86890625 -12.7890625 2.85890625 -12.7890625 3.87890625 C-11.4690625 4.53890625 -10.1490625 5.19890625 -8.7890625 5.87890625 C-8.7890625 5.21890625 -8.7890625 4.55890625 -8.7890625 3.87890625 C-8.1290625 3.87890625 -7.4690625 3.87890625 -6.7890625 3.87890625 C-6.7890625 2.88890625 -6.7890625 1.89890625 -6.7890625 0.87890625 C-4.28805676 -0.37159662 -2.78563198 -0.15102824 0 0 Z " fill="#0A2E49" transform="translate(195.7890625,104.12109375)"/>
<path d="M0 0 C0.99 0.33 1.98 0.66 3 1 C2.67 1.66 2.34 2.32 2 3 C5.33286621 5.17592476 5.33286621 5.17592476 9.0625 6.4375 C11.81657652 7.2370706 13.04819234 8.92990096 15 11 C16.65191491 12.35156675 18.31522656 13.68962066 20 15 C19.34 15 18.68 15 18 15 C18 17.64 18 20.28 18 23 C17.49984375 22.33613281 16.9996875 21.67226563 16.484375 20.98828125 C13.29407016 17.15088628 9.7980488 13.69195273 6.25 10.1875 C5.55261719 9.49462891 4.85523438 8.80175781 4.13671875 8.08789062 C2.42673845 6.38962252 0.71445866 4.69374494 -1 3 C-0.67 2.01 -0.34 1.02 0 0 Z " fill="#54B07F" transform="translate(166,245)"/>
<path d="M0 0 C0.99 0.33 1.98 0.66 3 1 C-4.08423053 12.28309056 -4.08423053 12.28309056 -11 15 C-14.94849435 15.46846543 -17.03385196 15.59455264 -20.4375 13.5 C-20.953125 13.005 -21.46875 12.51 -22 12 C-21.236875 12.061875 -20.47375 12.12375 -19.6875 12.1875 C-16.44363031 11.96118351 -16.16055611 11.25057928 -14 9 C-11.3125 8.3125 -11.3125 8.3125 -9 8 C-8.67 8.66 -8.34 9.32 -8 10 C-6.35 9.34 -4.7 8.68 -3 8 C-3.33 7.01 -3.66 6.02 -4 5 C-3.525625 4.54625 -3.05125 4.0925 -2.5625 3.625 C-0.90972192 2.06741796 -0.90972192 2.06741796 0 0 Z " fill="#053557" transform="translate(158,148)"/>
<path d="M0 0 C2.82613703 3.44024219 5.39131533 6.95122977 7.8125 10.6875 C8.43769531 11.64011719 9.06289062 12.59273437 9.70703125 13.57421875 C10.13371094 14.37472656 10.56039062 15.17523438 11 16 C10.67 16.66 10.34 17.32 10 18 C8.68 17.67 7.36 17.34 6 17 C5.87625 17.61875 5.7525 18.2375 5.625 18.875 C5 21 5 21 3 23 C1 20 1 20 1.25 17.9375 C2 16 2 16 4 14 C4 12.68 4 11.36 4 10 C3.34 9.34 2.68 8.68 2 8 C2 6.68 2 5.36 2 4 C1.34 4 0.68 4 0 4 C0 2.68 0 1.36 0 0 Z " fill="#083D40" transform="translate(124,128)"/>
<path d="M0 0 C2.33678478 2.10832817 3.56323271 3.85471969 4.625 6.8125 C4.86476562 7.45832031 5.10453125 8.10414062 5.3515625 8.76953125 C6.91403915 14.14407443 7.14532508 19.25438726 6.8125 24.8125 C6.77133057 25.51375 6.73016113 26.215 6.68774414 26.9375 C6.24801683 32.59319028 4.89786246 37.14776518 2 42 C1.67 42 1.34 42 1 42 C1 40.35 1 38.7 1 37 C1.66 37 2.32 37 3 37 C4.76211169 24.00442628 4.44440697 12.38084798 0 0 Z " fill="#469E75" transform="translate(182,58)"/>
<path d="M0 0 C0.7523291 0.32145996 1.5046582 0.64291992 2.27978516 0.97412109 C7.38175508 2.38102998 12.25297575 2.35677542 17.5234375 2.4140625 C19.17540634 2.44311172 19.17540634 2.44311172 20.86074829 2.4727478 C24.36542099 2.53234928 27.87012688 2.57885162 31.375 2.625 C33.75652445 2.66319762 36.13803534 2.70225039 38.51953125 2.7421875 C44.34623354 2.83803488 50.17301799 2.92313901 56 3 C56 3.33 56 3.66 56 4 C38.84 4 21.68 4 4 4 C4 4.66 4 5.32 4 6 C3.34 6 2.68 6 2 6 C1.34 4.02 0.68 2.04 0 0 Z " fill="#4294C2" transform="translate(207,142)"/>
<path d="M0 0 C0.66 1.32 1.32 2.64 2 4 C3.2236068 4.0745356 3.2236068 4.0745356 5 3 C7.125 3.4375 7.125 3.4375 9 4 C9 4.66 9 5.32 9 6 C7.421924 6.84324672 5.8372958 7.67423918 4.25 8.5 C3.36828125 8.9640625 2.4865625 9.428125 1.578125 9.90625 C-1 11 -1 11 -5 11 C-3.77472971 6.94718288 -2.30119506 3.55639236 0 0 Z " fill="#163C47" transform="translate(191,372)"/>
<path d="M0 0 C0.99 0 1.98 0 3 0 C3.66 2.31 4.32 4.62 5 7 C-3.25 7 -11.5 7 -20 7 C-20 6.34 -20 5.68 -20 5 C-9.605 4.505 -9.605 4.505 1 4 C0.67 2.68 0.34 1.36 0 0 Z " fill="#71A2BD" transform="translate(100,111)"/>
<path d="M0 0 C3.40312738 1.05875074 6.01353231 2.00902154 9 4 C9 4.66 9 5.32 9 6 C9.66 6 10.32 6 11 6 C11.79953138 9.28696233 12.09658936 10.71023192 11 14 C10.34 14 9.68 14 9 14 C9 13.01 9 12.02 9 11 C8.34 11 7.68 11 7 11 C6.67 10.01 6.34 9.02 6 8 C5.34 7.690625 4.68 7.38125 4 7.0625 C2 6 2 6 1.3125 4 C1.1578125 3.01 1.1578125 3.01 1 2 C0.67 1.34 0.34 0.68 0 0 Z " fill="#58A5CD" transform="translate(168,196)"/>
<path d="M0 0 C1.26328125 0.01804688 2.5265625 0.03609375 3.828125 0.0546875 C4.79234375 0.07789063 5.7565625 0.10109375 6.75 0.125 C6.75 0.785 6.75 1.445 6.75 2.125 C8.4 2.125 10.05 2.125 11.75 2.125 C12.08 3.115 12.41 4.105 12.75 5.125 C7.24567039 5.3004368 2.21337653 4.6524161 -3.1875 3.625 C-4.35635742 3.41037109 -4.35635742 3.41037109 -5.54882812 3.19140625 C-7.4502421 2.84145276 -9.35027393 2.48400335 -11.25 2.125 C-7.54583874 -0.25090142 -4.32015427 -0.08000286 0 0 Z " fill="#5AA3CA" transform="translate(140.25,174.875)"/>
<path d="M0 0 C0.94875 0.04125 1.8975 0.0825 2.875 0.125 C3.205 0.785 3.535 1.445 3.875 2.125 C1.565 2.785 -0.745 3.445 -3.125 4.125 C-2.795 5.445 -2.465 6.765 -2.125 8.125 C0.185 8.455 2.495 8.785 4.875 9.125 C3.885 10.61 3.885 10.61 2.875 12.125 C-0.0625 12.625 -0.0625 12.625 -3.125 12.125 C-5.0625 9.9375 -5.0625 9.9375 -6.125 7.125 C-5.80429439 2.5282196 -4.93592965 0.19743719 0 0 Z " fill="#06385F" transform="translate(255.125,111.875)"/>
<path d="M0 0 C5.71537426 0.73671717 11.30542556 1.85042619 16.9375 3.0625 C18.24944336 3.3419043 18.24944336 3.3419043 19.58789062 3.62695312 C21.72570528 4.08255297 23.86291582 4.54098592 26 5 C23 7 23 7 20.375 6.75 C18.54576533 6.34350341 16.71694942 5.9350032 14.890625 5.515625 C9.92656231 4.3858728 5.06328602 3.55235847 0 3 C0 2.01 0 1.02 0 0 Z " fill="#67A9C9" transform="translate(138,189)"/>
<path d="M0 0 C0.33 0.99 0.66 1.98 1 3 C0.67 3.66 0.34 4.32 0 5 C-0.66 5 -1.32 5 -2 5 C-2.268125 5.53625 -2.53625 6.0725 -2.8125 6.625 C-3.204375 7.40875 -3.59625 8.1925 -4 9 C-4.495 10.051875 -4.99 11.10375 -5.5 12.1875 C-7 15 -7 15 -9 16 C-9.33 16.99 -9.66 17.98 -10 19 C-11.87617698 20.84499398 -13.92737609 22.3683599 -16 24 C-14.67980307 20.33687848 -13.0719392 17.4688642 -10.7421875 14.35546875 C-10.11699219 13.51435547 -9.49179688 12.67324219 -8.84765625 11.80664062 C-8.19667969 10.94232422 -7.54570312 10.07800781 -6.875 9.1875 C-6.21628906 8.30384766 -5.55757812 7.42019531 -4.87890625 6.50976562 C-3.25748432 4.33612028 -1.63107746 2.16640381 0 0 Z " fill="#03383B" transform="translate(179,107)"/>
<path d="M0 0 C0.99 0.495 0.99 0.495 2 1 C2 1.66 2 2.32 2 3 C2.99 3.33 3.98 3.66 5 4 C6.09658936 7.28976808 5.79953138 8.71303767 5 12 C6.32 11.67 7.64 11.34 9 11 C9.25 17.625 9.25 17.625 7 21 C6.01856791 18.25078962 5.0397767 15.50068729 4.0625 12.75 C3.78470703 11.97269531 3.50691406 11.19539062 3.22070312 10.39453125 C2.81948242 9.26337891 2.81948242 9.26337891 2.41015625 8.109375 C2.04096069 7.07248535 2.04096069 7.07248535 1.66430664 6.01464844 C1.00858753 4.02604347 0.48132614 2.03714797 0 0 Z " fill="#3C5667" transform="translate(18,217)"/>
<path d="M0 0 C2.4375 2.1875 2.4375 2.1875 4 4 C3.67 4.66 3.34 5.32 3 6 C2.39478516 5.3503125 2.39478516 5.3503125 1.77734375 4.6875 C-3.50233025 -0.15500354 -8.18082691 -0.53865073 -15.07055664 -0.3046875 C-16.71490028 -0.22479025 -18.35777089 -0.11546923 -20 0 C-20.33 -0.66 -20.66 -1.32 -21 -2 C-13.63596412 -4.09917345 -6.68194127 -3.74188711 0 0 Z " fill="#03383B" transform="translate(156,63)"/>
<path d="M0 0 C9.83500914 -0.44424132 17.89281619 -0.32205334 27 4 C27 4.99 27 5.98 27 7 C26.47535156 6.73445313 25.95070312 6.46890625 25.41015625 6.1953125 C17.19451071 2.44974365 8.88623842 1.78347346 0 1 C0 0.67 0 0.34 0 0 Z " fill="#4CA779" transform="translate(137,36)"/>
<path d="M0 0 C0.99 0.33 1.98 0.66 3 1 C2.34 1 1.68 1 1 1 C1 1.66 1 2.32 1 3 C-0.94168795 3.97084397 -2.88368414 4.94092475 -4.828125 5.90625 C-6.69243745 6.84511238 -8.53603656 7.82490852 -10.375 8.8125 C-11.24125 9.204375 -12.1075 9.59625 -13 10 C-13.66 9.67 -14.32 9.34 -15 9 C-15 8.01 -15 7.02 -15 6 C-14.00097656 5.65066406 -13.00195312 5.30132812 -11.97265625 4.94140625 C-10.66921795 4.48192081 -9.3658354 4.02227721 -8.0625 3.5625 C-7.0734668 3.21735352 -7.0734668 3.21735352 -6.06445312 2.86523438 C-2.77671378 1.88035408 -2.77671378 1.88035408 0 0 Z " fill="#415669" transform="translate(121,17)"/>
<path d="M0 0 C1.04449911 3.13349732 0.93423645 3.98968256 0 7 C-0.29519531 6.35546875 -0.59039062 5.7109375 -0.89453125 5.046875 C-4.27597774 1.75953184 -8.14317276 2.32313475 -12.6875 2.25 C-13.58017578 2.22035156 -14.47285156 2.19070312 -15.39257812 2.16015625 C-17.59514277 2.08948573 -19.79665131 2.03678061 -22 2 C-22 1.67 -22 1.34 -22 1 C-14.63512596 0.00137301 -7.42686315 -0.10331031 0 0 Z " fill="#586D7C" transform="translate(98,103)"/>
<path d="M0 0 C0.763125 0.20625 1.52625 0.4125 2.3125 0.625 C-1.4375 2.625 -1.4375 2.625 -3.6875 2.625 C-4.0175 10.875 -4.3475 19.125 -4.6875 27.625 C-5.0175 27.625 -5.3475 27.625 -5.6875 27.625 C-5.7742562 23.33345978 -5.8278089 19.04214332 -5.875 14.75 C-5.90013672 13.52667969 -5.92527344 12.30335937 -5.95117188 11.04296875 C-5.96083984 9.87636719 -5.97050781 8.70976563 -5.98046875 7.5078125 C-5.9961792 6.42902832 -6.01188965 5.35024414 -6.02807617 4.23876953 C-5.91568604 3.37622559 -5.8032959 2.51368164 -5.6875 1.625 C-2.6875 -0.375 -2.6875 -0.375 0 0 Z " fill="#094268" transform="translate(255.6875,76.375)"/>
<path d="M0 0 C0.33 0.66 0.66 1.32 1 2 C1.556875 1.814375 2.11375 1.62875 2.6875 1.4375 C5.399133 0.92448835 7.34371039 1.3359276 10 2 C8.625 3.5 8.625 3.5 7 5 C6.34 5 5.68 5 5 5 C5 5.66 5 6.32 5 7 C3.35 7.66 1.7 8.32 0 9 C-1.125 3.375 -1.125 3.375 0 0 Z " fill="#304B60" transform="translate(215,358)"/>
<path d="M0 0 C0.33 0.99 0.66 1.98 1 3 C1.99 2.34 2.98 1.68 4 1 C6.1875 1.375 6.1875 1.375 8 2 C7.125 5.875 7.125 5.875 6 7 C5.01 7 4.02 7 3 7 C3.309375 8.423125 3.309375 8.423125 3.625 9.875 C3.74875 10.90625 3.8725 11.9375 4 13 C3.34 13.66 2.68 14.32 2 15 C1.66223316 13.2508503 1.32996329 11.50063855 1 9.75 C0.814375 8.77546875 0.62875 7.8009375 0.4375 6.796875 C0 4 0 4 0 0 Z " fill="#304D62" transform="translate(4,158)"/>
<path d="M0 0 C7.03787373 1.52487264 14.0203196 3.22850751 21 5 C17.25 8 17.25 8 15 8 C15 7.34 15 6.68 15 6 C12.69 5.67 10.38 5.34 8 5 C8 4.34 8 3.68 8 3 C5.36 3 2.72 3 0 3 C0 2.01 0 1.02 0 0 Z " fill="#6CADCE" transform="translate(115,183)"/>
<path d="M0 0 C2.06298828 -0.2487793 2.06298828 -0.2487793 4.5703125 -0.07421875 C5.46621094 -0.01943359 6.36210937 0.03535156 7.28515625 0.09179688 C8.22230469 0.16462891 9.15945312 0.23746094 10.125 0.3125 C11.06988281 0.37373047 12.01476562 0.43496094 12.98828125 0.49804688 C15.32681186 0.65158676 17.66342389 0.81946076 20 1 C19.67 1.99 19.34 2.98 19 4 C12.07 3.67 5.14 3.34 -2 3 C-1.34 2.01 -0.68 1.02 0 0 Z " fill="#488BB2" transform="translate(185,115)"/>
<path d="M0 0 C6.6 0 13.2 0 20 0 C20.33 0.99 20.66 1.98 21 3 C20.01 4.485 20.01 4.485 19 6 C18.34 6 17.68 6 17 6 C16.67 7.98 16.34 9.96 16 12 C15.34 11.67 14.68 11.34 14 11 C15.05875074 7.59687262 16.00902154 4.98646769 18 2 C12.06 1.67 6.12 1.34 0 1 C0 0.67 0 0.34 0 0 Z " fill="#A1ADBC" transform="translate(192,105)"/>
<path d="M0 0 C1.98 0 3.96 0 6 0 C4.15454545 4.74545455 4.15454545 4.74545455 2.9375 6.75 C1.65645487 9.8245083 1.80868749 12.43437451 1.875 15.75 C1.89304688 16.92046875 1.91109375 18.0909375 1.9296875 19.296875 C1.95289063 20.18890625 1.97609375 21.0809375 2 22 C1.34 21.67 0.68 21.34 0 21 C-0.05451714 18.95863605 -0.09302485 16.91684144 -0.125 14.875 C-0.14820313 13.73804688 -0.17140625 12.60109375 -0.1953125 11.4296875 C0.00327891 7.94242233 0.7475199 5.2446138 2 2 C1.34 2 0.68 2 0 2 C0 1.34 0 0.68 0 0 Z " fill="#053A3E" transform="translate(152,301)"/>
<path d="M0 0 C0.66 0 1.32 0 2 0 C0.8905928 3.48670834 -0.26337666 6.77484237 -2 10 C-1.01 10.33 -0.02 10.66 1 11 C-2.82989106 12.80230168 -5.78121808 13.19622241 -10 13 C-10 12.34 -10 11.68 -10 11 C-9.0925 10.855625 -8.185 10.71125 -7.25 10.5625 C-2.95098597 8.49566633 -2.33454779 6.20367195 -0.6640625 1.8984375 C-0.44492188 1.27195312 -0.22578125 0.64546875 0 0 Z " fill="#58A379" transform="translate(188,373)"/>
<path d="M0 0 C3.25548753 3.02295271 5.68977058 6.20462309 8 10 C8 10.66 8 11.32 8 12 C9.32 12.66 10.64 13.32 12 14 C12 15.98 12 17.96 12 20 C8.91291669 16.29410944 6.26249668 12.42089735 3.75 8.3125 C3.38648438 7.73177734 3.02296875 7.15105469 2.6484375 6.55273438 C0 2.2465343 0 2.2465343 0 0 Z " fill="#49A479" transform="translate(126,129)"/>
<path d="M0 0 C0 0.99 0 1.98 0 3 C-6.6 3.33 -13.2 3.66 -20 4 C-20 3.34 -20 2.68 -20 2 C-17.41703099 1.66361334 -14.83368737 1.3307835 -12.25 1 C-11.15558594 0.85691406 -11.15558594 0.85691406 -10.0390625 0.7109375 C-6.65143196 0.27978452 -3.42145141 0 0 0 Z " fill="#043D3C" transform="translate(153,33)"/>
<path d="M0 0 C0.99 0 1.98 0 3 0 C3 0.66 3 1.32 3 2 C3.78375 1.79375 4.5675 1.5875 5.375 1.375 C6.674375 1.189375 6.674375 1.189375 8 1 C10.35953094 3.35953094 10.49141413 4.77895617 11 8 C10.236875 7.690625 9.47375 7.38125 8.6875 7.0625 C6.81210323 6.32106407 4.91315348 5.63771783 3 5 C3 4.34 3 3.68 3 3 C2.01 2.67 1.02 2.34 0 2 C0 1.34 0 0.68 0 0 Z " fill="#375063" transform="translate(147,373)"/>
<path d="M0 0 C-0.33 0.99 -0.66 1.98 -1 3 C-1.99 3.33 -2.98 3.66 -4 4 C-4.33 4.99 -4.66 5.98 -5 7 C-9.455 6.01 -9.455 6.01 -14 5 C-11.35493484 3.23662322 -9.40786033 2.3439149 -6.4375 1.375 C-5.65246094 1.11460938 -4.86742188 0.85421875 -4.05859375 0.5859375 C-2 0 -2 0 0 0 Z " fill="#08273F" transform="translate(94,29)"/>
<path d="M0 0 C0.99 0.33 1.98 0.66 3 1 C2.67 1.66 2.34 2.32 2 3 C4.9465385 4.80066242 7.88801935 6.50163895 11 8 C10.34 8 9.68 8 9 8 C8.67 9.32 8.34 10.64 8 12 C5.03 9.03 2.06 6.06 -1 3 C-0.67 2.01 -0.34 1.02 0 0 Z " fill="#6DB2B8" transform="translate(166,245)"/>
<path d="M0 0 C0.66 0 1.32 0 2 0 C2 0.99 2 1.98 2 3 C1.01 3.33 0.02 3.66 -1 4 C-1.33 4.66 -1.66 5.32 -2 6 C-2.66 6 -3.32 6 -4 6 C-4.33 6.99 -4.66 7.98 -5 9 C-7.5625 10.1875 -7.5625 10.1875 -10 11 C-10.66 10.34 -11.32 9.68 -12 9 C-11.21753906 8.43410156 -10.43507812 7.86820312 -9.62890625 7.28515625 C-8.61699219 6.55167969 -7.60507813 5.81820313 -6.5625 5.0625 C-5.55316406 4.33160156 -4.54382813 3.60070312 -3.50390625 2.84765625 C-1.17707392 1.22678115 -1.17707392 1.22678115 0 0 Z " fill="#48A575" transform="translate(174,288)"/>
<path d="M0 0 C4.90445058 1.13179629 7.68420809 2.19297966 11 6 C11.66 6.33 12.32 6.66 13 7 C13 8.65 13 10.3 13 12 C12.79375 11.38125 12.5875 10.7625 12.375 10.125 C10.44689067 7.14519467 8.3345933 7.04614692 5 6 C2.125 4 2.125 4 0 2 C0 1.34 0 0.68 0 0 Z " fill="#3FA1A7" transform="translate(188,259)"/>
<path d="M0 0 C1.32 0.33 2.64 0.66 4 1 C3.67 2.32 3.34 3.64 3 5 C4.32 5 5.64 5 7 5 C7 7.97 7 10.94 7 14 C6.34 13.67 5.68 13.34 5 13 C5 11.68 5 10.36 5 9 C4.34 9 3.68 9 3 9 C2.01 6.03 1.02 3.06 0 0 Z " fill="#425669" transform="translate(26,238)"/>
<path d="M0 0 C0 0.99 0 1.98 0 3 C-0.66 3 -1.32 3 -2 3 C-2.33 3.99 -2.66 4.98 -3 6 C-6.3 5.01 -9.6 4.02 -13 3 C-10.64538796 2.21512932 -8.33987808 1.54370755 -5.9375 0.9375 C-4.89916016 0.67259766 -4.89916016 0.67259766 -3.83984375 0.40234375 C-2 0 -2 0 0 0 Z " fill="#57A7D0" transform="translate(189,184)"/>
<path d="M0 0 C0.33 0 0.66 0 1 0 C1.27560214 6.20104812 0.22899346 11.93184478 -1 18 C-1.66 18 -2.32 18 -3 18 C-3.11065148 12.57807726 -3.09006648 7.34132574 -2 2 C-1.34 1.34 -0.68 0.68 0 0 Z " fill="#506374" transform="translate(346,152)"/>
<path d="M0 0 C-1.45044271 4.10958767 -3.51110752 7.43258745 -6 11 C-7.30245593 8.85477846 -8.01434368 7.47334158 -7.9375 4.9375 C-6.40053039 1.76109614 -3.5333473 0 0 0 Z " fill="#053257" transform="translate(168,137)"/>
<path d="M0 0 C0 0.33 0 0.66 0 1 C-1.65 1 -3.3 1 -5 1 C-5.33 1.99 -5.66 2.98 -6 4 C-14.415 4.495 -14.415 4.495 -23 5 C-23 4.67 -23 4.34 -23 4 C-21.94039062 3.79503906 -20.88078125 3.59007812 -19.7890625 3.37890625 C-18.40101178 3.10692334 -17.01299256 2.83477956 -15.625 2.5625 C-14.92632812 2.42779297 -14.22765625 2.29308594 -13.5078125 2.15429688 C-2.32255104 -0.05049024 -2.32255104 -0.05049024 0 0 Z " fill="#5D6F80" transform="translate(59,39)"/>
<path d="M0 0 C1.32 0.66 2.64 1.32 4 2 C3.34 2 2.68 2 2 2 C1.814375 2.556875 1.62875 3.11375 1.4375 3.6875 C-0.66360714 7.06754192 -3.70665994 8.85140381 -7 11 C-7.66 10.01 -8.32 9.02 -9 8 C-7.6078125 7.4121875 -7.6078125 7.4121875 -6.1875 6.8125 C-2.77449882 4.87177384 -1.68801596 3.46981059 0 0 Z " fill="#063940" transform="translate(176,282)"/>
<path d="M0 0 C0.33 0.66 0.66 1.32 1 2 C1.99 2.33 2.98 2.66 4 3 C3.34 3.66 2.68 4.32 2 5 C1.67 5.66 1.34 6.32 1 7 C0 9 0 9 -2 11 C-4 8 -4 8 -3.8125 6.0625 C-2.87858188 3.69178476 -1.61172061 1.96209466 0 0 Z " fill="#1F3F55" transform="translate(129,140)"/>
<path d="M0 0 C0.66 0 1.32 0 2 0 C1.35256333 3.82990706 -0.45311237 6.5283898 -2.5625 9.75 C-3.20316406 10.73484375 -3.84382812 11.7196875 -4.50390625 12.734375 C-4.99761719 13.48203125 -5.49132812 14.2296875 -6 15 C-6.625 13.125 -6.625 13.125 -7 11 C-6.34 10.34 -5.68 9.68 -5 9 C-4.690625 8.21625 -4.38125 7.4325 -4.0625 6.625 C-2.99947806 3.99871049 -1.87811821 2.11288299 0 0 Z " fill="#46A273" transform="translate(162,126)"/>
<path d="M0 0 C2.55718711 2.20566004 3.43746239 3.6437312 3.8125 7 C3.90144531 7.680625 3.99039062 8.36125 4.08203125 9.0625 C4 11 4 11 2 14 C1.01 13.67 0.02 13.34 -1 13 C-0.67 12.67 -0.34 12.34 0 12 C0.07244053 9.98035801 0.08377188 7.95832876 0.0625 5.9375 C0.05347656 4.83277344 0.04445313 3.72804688 0.03515625 2.58984375 C0.02355469 1.73519531 0.01195312 0.88054687 0 0 Z " fill="#4292BD" transform="translate(296,121)"/>
<path d="M0 0 C0.99 0.66 1.98 1.32 3 2 C1.71344735 3.81613362 0.42060005 5.62780954 -0.875 7.4375 C-1.95394531 8.95150391 -1.95394531 8.95150391 -3.0546875 10.49609375 C-5 13 -5 13 -7 14 C-6.67 12.02 -6.34 10.04 -6 8 C-5.01 8 -4.02 8 -3 8 C-1.92474806 5.34771188 -0.90543849 2.71631546 0 0 Z " fill="#47A374" transform="translate(178,103)"/>
<path d="M0 0 C1 3 1 3 0.375 5.8125 C-0.09232177 9.78473507 1.12175892 11.55655801 3 15 C2.67 15.66 2.34 16.32 2 17 C-0.62471619 12.8004541 -2.82779123 8.44365551 -5 4 C-4.360625 3.71125 -3.72125 3.4225 -3.0625 3.125 C-0.84793921 2.17176549 -0.84793921 2.17176549 0 0 Z " fill="#48A573" transform="translate(179,309)"/>
<path d="M0 0 C0.66 1.32 1.32 2.64 2 4 C1.236875 4.7425 0.47375 5.485 -0.3125 6.25 C-2.4393702 8.4263323 -4.2559956 10.52167796 -6 13 C-6.99 12.67 -7.98 12.34 -9 12 C-6.03 8.04 -3.06 4.08 0 0 Z " fill="#3D92C0" transform="translate(182,118)"/>
<path d="M0 0 C3.875 2.625 3.875 2.625 5 6 C5.66 6.5775 6.32 7.155 7 7.75 C9.63580622 10.715282 9.70140041 13.11820531 10 17 C7.51040869 13.7635313 5.24885838 10.40736118 3 7 C2.25059034 5.87460666 1.50061197 4.74959178 0.75 3.625 C0.1725 2.75875 -0.405 1.8925 -1 1 C-0.67 0.67 -0.34 0.34 0 0 Z " fill="#02383D" transform="translate(176,46)"/>
<path d="M0 0 C1.35439668 2.70879335 1.06501451 5.00933268 1 8 C0.01 8.33 -0.98 8.66 -2 9 C-2 9.66 -2 10.32 -2 11 C-2.66 11 -3.32 11 -4 11 C-4.66 12.32 -5.32 13.64 -6 15 C-6 11.21286807 -4.73107406 9.16645599 -3 5.8125 C-2.443125 4.72582031 -1.88625 3.63914062 -1.3125 2.51953125 C-0.879375 1.68808594 -0.44625 0.85664062 0 0 Z " fill="#04363C" transform="translate(187,92)"/>
<path d="M0 0 C-0.33 1.32 -0.66 2.64 -1 4 C-4.3 4.33 -7.6 4.66 -11 5 C-10 2 -10 2 -7.75 0.8125 C-5.00208853 0.00061706 -2.84552111 -0.16260121 0 0 Z " fill="#324A5E" transform="translate(167,0)"/>
<path d="M0 0 C0.33 0.99 0.66 1.98 1 3 C1.99 3.33 2.98 3.66 4 4 C3.67 4.66 3.34 5.32 3 6 C3.66 6 4.32 6 5 6 C5.33 7.65 5.66 9.3 6 11 C3.53199953 9.84826645 1.95216435 8.95216435 0 7 C-0.125 3.375 -0.125 3.375 0 0 Z " fill="#63A8CC" transform="translate(117,164)"/>
<path d="M0 0 C0.5775 0.226875 1.155 0.45375 1.75 0.6875 C0.25260417 1.89192708 -1.24479167 3.09635417 -2.7421875 4.30078125 C-4.50292107 5.81020545 -4.50292107 5.81020545 -6.25 8.6875 C-6.91 8.6875 -7.57 8.6875 -8.25 8.6875 C-7.38540574 5.44527151 -6.73278055 3.18637323 -4.375 0.75 C-2.25 -0.3125 -2.25 -0.3125 0 0 Z " fill="#47A572" transform="translate(132.25,62.3125)"/>
<path d="M0 0 C0.66 0 1.32 0 2 0 C3.72262035 2.99407823 4.27306023 5.17749593 4.25 8.625 C4.25515625 9.40101563 4.2603125 10.17703125 4.265625 10.9765625 C4 13 4 13 2 15 C1.34 10.05 0.68 5.1 0 0 Z " fill="#4AA975" transform="translate(168,345)"/>
<path d="M0 0 C1.75 0.125 1.75 0.125 4 1 C6.3125 3.875 6.3125 3.875 8 7 C7.67 7.99 7.34 8.98 7 10 C5.83043409 8.52312468 4.66441854 7.04343707 3.5 5.5625 C2.8503125 4.73878906 2.200625 3.91507812 1.53125 3.06640625 C0 1 0 1 0 0 Z " fill="#445B6B" transform="translate(61,297)"/>
<path d="M0 0 C-0.66 0 -1.32 0 -2 0 C-2 2.64 -2 5.28 -2 8 C-4.12038635 5.38485683 -6.13091744 2.80362384 -8 0 C-4.94736336 -0.98120464 -3.05263664 -0.98120464 0 0 Z " fill="#6CBD8B" transform="translate(186,260)"/>
<path d="M0 0 C3.875 4.75 3.875 4.75 5 7 C4.236875 6.79375 3.47375 6.5875 2.6875 6.375 C-0.21885944 5.66608797 -0.21885944 5.66608797 -3 8 C-3.99 7.67 -4.98 7.34 -6 7 C-5.195625 6.401875 -4.39125 5.80375 -3.5625 5.1875 C-0.77672016 3.19052724 -0.77672016 3.19052724 0 0 Z " fill="#6BA9C6" transform="translate(128,151)"/>
<path d="M0 0 C0.66 0.33 1.32 0.66 2 1 C-0.97 5.95 -0.97 5.95 -4 11 C-4.99 9.68 -5.98 8.36 -7 7 C-6.01 6.67 -5.02 6.34 -4 6 C-4 5.34 -4 4.68 -4 4 C-3.34 4 -2.68 4 -2 4 C-2 3.01 -2 2.02 -2 1 C-1.34 0.67 -0.68 0.34 0 0 Z " fill="#3E5365" transform="translate(191,104)"/>
<path d="M0 0 C4 0 4 0 6.1875 1.6875 C8.16074267 4.20508548 8.6507442 5.85669777 9 9 C7.87105124 8.06725891 6.74699124 7.12859878 5.625 6.1875 C4.99851562 5.66542969 4.37203125 5.14335937 3.7265625 4.60546875 C2 3 2 3 0 0 Z " fill="#495C70" transform="translate(82,322)"/>
<path d="M0 0 C0.33 0.99 0.66 1.98 1 3 C-0.43359375 5.04296875 -0.43359375 5.04296875 -2.4375 7.1875 C-3.09621094 7.90292969 -3.75492188 8.61835938 -4.43359375 9.35546875 C-4.95050781 9.89816406 -5.46742188 10.44085938 -6 11 C-6.66 10.01 -7.32 9.02 -8 8 C-6.37660195 6.29115995 -4.70680947 4.62553283 -3 3 C-2.34 3 -1.68 3 -1 3 C-0.67 2.01 -0.34 1.02 0 0 Z " fill="#49A572" transform="translate(200,286)"/>
<path d="M0 0 C0.33 0 0.66 0 1 0 C1.36402369 1.43503555 1.71586591 2.87316506 2.0625 4.3125 C2.25972656 5.11300781 2.45695313 5.91351563 2.66015625 6.73828125 C3 9 3 9 2 12 C1.01 12 0.02 12 -1 12 C-2.09898702 8.70303895 -1.87124444 7.59505097 -1.0625 4.3125 C-0.86785156 3.50425781 -0.67320312 2.69601562 -0.47265625 1.86328125 C-0.31667969 1.24839844 -0.16070312 0.63351562 0 0 Z " fill="#6EBA89" transform="translate(184,269)"/>
<path d="M0 0 C1.65 0 3.3 0 5 0 C5 0.66 5 1.32 5 2 C-0.29411765 6 -0.29411765 6 -4 6 C-4 5.34 -4 4.68 -4 4 C-3.34 4 -2.68 4 -2 4 C-2 3.34 -2 2.68 -2 2 C-1.34 2 -0.68 2 0 2 C0 1.34 0 0.68 0 0 Z " fill="#5DA5C8" transform="translate(148,224)"/>
<path d="M0 0 C0.66 0 1.32 0 2 0 C1.38722388 2.96175123 0.74627478 4.38058783 -1 7 C-3.9375 7.8125 -3.9375 7.8125 -7 8 C-7.99 7.34 -8.98 6.68 -10 6 C-9.67 5.34 -9.34 4.68 -9 4 C-7.68 4.66 -6.36 5.32 -5 6 C-1.62911733 3.72584713 -1.62911733 3.72584713 0 0 Z " fill="#49A27A" transform="translate(149,146)"/>
<path d="M0 0 C4.20390632 1.50139512 5.89110738 4.17275043 8 8 C7.67 8.99 7.34 9.98 7 11 C5.5 9.6875 5.5 9.6875 4 8 C4 7.01 4 6.02 4 5 C2.68 4.34 1.36 3.68 0 3 C0 2.01 0 1.02 0 0 Z " fill="#51AD86" transform="translate(195,265)"/>
<path d="M0 0 C3.28788824 3.11016455 5.83735988 6.01618925 8 10 C7.01 10.495 7.01 10.495 6 11 C6 10.34 6 9.68 6 9 C5.01 9 4.02 9 3 9 C2.01 6.03 1.02 3.06 0 0 Z " fill="#073742" transform="translate(116,118)"/>
<path d="M0 0 C3 0.4375 3 0.4375 6 3.4375 C0.06 3.9325 0.06 3.9325 -6 4.4375 C-3 0.4375 -3 0.4375 0 0 Z " fill="#3E90BF" transform="translate(255,54.5625)"/>
<path d="M0 0 C0.99 0.495 0.99 0.495 2 1 C2 1.66 2 2.32 2 3 C2.99 3.33 3.98 3.66 5 4 C6 7 6 7 5.0625 9.1875 C4.5365625 10.0846875 4.5365625 10.0846875 4 11 C3.32880451 9.5437455 2.66318193 8.08492133 2 6.625 C1.62875 5.81289062 1.2575 5.00078125 0.875 4.1640625 C0 2 0 2 0 0 Z " fill="#34495D" transform="translate(18,217)"/>
<path d="M0 0 C0.99 0 1.98 0 3 0 C2.690625 0.61875 2.38125 1.2375 2.0625 1.875 C0.5960722 6.18802294 0.33380974 10.4759996 0 15 C-0.33 15 -0.66 15 -1 15 C-1.02685412 12.68756208 -1.04632841 10.3750373 -1.0625 8.0625 C-1.07410156 6.77472656 -1.08570312 5.48695313 -1.09765625 4.16015625 C-1 1 -1 1 0 0 Z " fill="#90CBDE" transform="translate(105,158)"/>
<path d="M0 0 C0.33 0 0.66 0 1 0 C1 3.96 1 7.92 1 12 C0.34 12 -0.32 12 -1 12 C-0.67 9.69 -0.34 7.38 0 5 C-0.99 4.67 -1.98 4.34 -3 4 C-2.67 3.34 -2.34 2.68 -2 2 C-1.34 2 -0.68 2 0 2 C0 1.34 0 0.68 0 0 Z " fill="#08253C" transform="translate(347,131)"/>
<path d="M0 0 C0.721875 0.763125 1.44375 1.52625 2.1875 2.3125 C4.69790967 4.71133591 6.96808302 6.35410221 10 8 C9.67 8.66 9.34 9.32 9 10 C6.0625 9.25 6.0625 9.25 3 8 C2.125 5.875 2.125 5.875 2 4 C1.34 4 0.68 4 0 4 C0 2.68 0 1.36 0 0 Z " fill="#47A277" transform="translate(126,90)"/>
<path d="M0 0 C-0.33 0.99 -0.66 1.98 -1 3 C-1.66 3 -2.32 3 -3 3 C-2.67 3.99 -2.34 4.98 -2 6 C-3.32 6 -4.64 6 -6 6 C-6.33 6.99 -6.66 7.98 -7 9 C-7 5 -7 5 -4.625 2.25 C-2 0 -2 0 0 0 Z " fill="#04393D" transform="translate(188,303)"/>
<path d="M0 0 C0.66 0.33 1.32 0.66 2 1 C1.00102287 3.99693138 0.34869747 5.02709413 -2 7 C-2.66 7 -3.32 7 -4 7 C-4.33 7.99 -4.66 8.98 -5 10 C-5.33 9.34 -5.66 8.68 -6 8 C-4.02 5.36 -2.04 2.72 0 0 Z " fill="#47A373" transform="translate(161,298)"/>
<path d="M0 0 C0.66 0.99 1.32 1.98 2 3 C-2.18461538 8.78461538 -2.18461538 8.78461538 -6.3125 9.875 C-7.6428125 9.936875 -7.6428125 9.936875 -9 10 C-8.236875 9.401875 -7.47375 8.80375 -6.6875 8.1875 C-2.36789787 4.78488452 -2.36789787 4.78488452 0 0 Z " fill="#86BBD9" transform="translate(195,213)"/>
<path d="M0 0 C0.33 0.99 0.66 1.98 1 3 C2.65 3.33 4.3 3.66 6 4 C6 4.33 6 4.66 6 5 C-1.42857143 5.28571429 -1.42857143 5.28571429 -5 3 C-4.360625 2.690625 -3.72125 2.38125 -3.0625 2.0625 C-1.06389179 1.1654837 -1.06389179 1.1654837 0 0 Z " fill="#4D96C1" transform="translate(127,171)"/>
<path d="M0 0 C1.98 0.99 1.98 0.99 4 2 C3.34 5.3 2.68 8.6 2 12 C1.67 12 1.34 12 1 12 C0.67 8.04 0.34 4.08 0 0 Z " fill="#0B375D" transform="translate(208,120)"/>
<path d="M0 0 C0.66 0 1.32 0 2 0 C3.32229189 2.64458379 3.09677194 4.67761301 3.0625 7.625 C3.05347656 8.62789062 3.04445312 9.63078125 3.03515625 10.6640625 C3.02355469 11.43492188 3.01195312 12.20578125 3 13 C2.67 13 2.34 13 2 13 C1.66127487 11.58461283 1.32925376 10.16762037 1 8.75 C0.814375 7.96109375 0.62875 7.1721875 0.4375 6.359375 C0 4 0 4 0 0 Z " fill="#023638" transform="translate(161,72)"/>
<path d="M0 0 C1.32 0 2.64 0 4 0 C4 0.66 4 1.32 4 2 C5.32 2.33 6.64 2.66 8 3 C8.33 4.98 8.66 6.96 9 9 C6 6 3 3 0 0 Z " fill="#48A777" transform="translate(154,62)"/>
<path d="M0 0 C5.445 1.485 5.445 1.485 11 3 C11 3.99 11 4.98 11 6 C7.27566618 4.7874262 3.62197194 3.49140021 0 2 C0 1.34 0 0.68 0 0 Z " fill="#043C3A" transform="translate(157,36)"/>
<path d="M0 0 C3.67033927 3.27708863 5.69281189 6.71522208 8 11 C6.0625 10.25 6.0625 10.25 4 9 C3.25 6.875 3.25 6.875 3 5 C2.34 5 1.68 5 1 5 C0.67 3.35 0.34 1.7 0 0 Z " fill="#063D3D" transform="translate(158,331)"/>
<path d="M0 0 C0.99 0.33 1.98 0.66 3 1 C-0.465 3.97 -0.465 3.97 -4 7 C-4.66 5.68 -5.32 4.36 -6 3 C-5.195625 2.690625 -4.39125 2.38125 -3.5625 2.0625 C-1.10919595 1.23664655 -1.10919595 1.23664655 0 0 Z " fill="#475C6C" transform="translate(263,324)"/>
<path d="M0 0 C0.33 1.32 0.66 2.64 1 4 C0.360625 4.20625 -0.27875 4.4125 -0.9375 4.625 C-3.34925077 5.89538209 -3.34925077 5.89538209 -3.75 9.125 C-3.8325 10.07375 -3.915 11.0225 -4 12 C-4.33 12 -4.66 12 -5 12 C-5.3125 8.8125 -5.3125 8.8125 -5 5 C-2.5 2.0625 -2.5 2.0625 0 0 Z " fill="#8CC5DC" transform="translate(168,233)"/>
<path d="M0 0 C2.0625 0.4375 2.0625 0.4375 4 1 C3.38125 1.7425 2.7625 2.485 2.125 3.25 C0.38238162 5.50515319 -0.79349562 7.45655832 -2 10 C-1.85950482 8.52031676 -1.71245174 7.04125484 -1.5625 5.5625 C-1.48128906 4.73878906 -1.40007812 3.91507813 -1.31640625 3.06640625 C-1 1 -1 1 0 0 Z " fill="#76B3D1" transform="translate(141,231)"/>
<path d="M0 0 C0.99 0.33 1.98 0.66 3 1 C2.34 2.32 1.68 3.64 1 5 C0.34 5 -0.32 5 -1 5 C-1 5.66 -1 6.32 -1 7 C-1.66 7 -2.32 7 -3 7 C-3.33 7.66 -3.66 8.32 -4 9 C-4 7.68 -4 6.36 -4 5 C-3.34 5 -2.68 5 -2 5 C-2 4.34 -2 3.68 -2 3 C-1.34 3 -0.68 3 0 3 C0 2.01 0 1.02 0 0 Z " fill="#63ACD0" transform="translate(113,149)"/>
<path d="M0 0 C0.99 0.33 1.98 0.66 3 1 C1.68 3.31 0.36 5.62 -1 8 C-1.66 8 -2.32 8 -3 8 C-2.45276317 4.62537285 -1.9451 2.91765 0 0 Z " fill="#043356" transform="translate(244,62)"/>
<path d="M0 0 C1.15957207 3.47871621 0.77456651 4.34219645 -0.4375 7.6875 C-0.86869141 8.89986328 -0.86869141 8.89986328 -1.30859375 10.13671875 C-1.53675781 10.75160156 -1.76492188 11.36648437 -2 12 C-2.33 12 -2.66 12 -3 12 C-3.75 9.375 -3.75 9.375 -4 6 C-2.0625 2.625 -2.0625 2.625 0 0 Z " fill="#617281" transform="translate(337,198)"/>
<path d="M0 0 C1.32 0.33 2.64 0.66 4 1 C4 1.99 4 2.98 4 4 C4.66 4.33 5.32 4.66 6 5 C6.625 7.5625 6.625 7.5625 7 10 C3.60582235 6.87378374 1.3937282 4.43458973 0 0 Z " fill="#48A774" transform="translate(117,117)"/>
<path d="M0 0 C0.33 0.66 0.66 1.32 1 2 C0.67 2.66 0.34 3.32 0 4 C-0.99 4.33 -1.98 4.66 -3 5 C-3.33 5.66 -3.66 6.32 -4 7 C-4.66 7 -5.32 7 -6 7 C-6 7.66 -6 8.32 -6 9 C-6.66 8.67 -7.32 8.34 -8 8 C-7.04578192 6.85073734 -6.08647955 5.70569459 -5.125 4.5625 C-4.59132812 3.92441406 -4.05765625 3.28632812 -3.5078125 2.62890625 C-2 1 -2 1 0 0 Z " fill="#023938" transform="translate(134,62)"/>
<path d="M0 0 C4.67692308 1.47692308 4.67692308 1.47692308 6.3125 4.125 C6.539375 4.74375 6.76625 5.3625 7 6 C6.01 6.33 5.02 6.66 4 7 C0 1.125 0 1.125 0 0 Z " fill="#506578" transform="translate(342,49)"/>
<path d="M0 0 C-0.33 0.99 -0.66 1.98 -1 3 C-3.31 3 -5.62 3 -8 3 C-8 2.34 -8 1.68 -8 1 C-5.29120665 -0.35439668 -2.99066732 -0.06501451 0 0 Z " fill="#08253C" transform="translate(32,46)"/>
<path d="M0 0 C3.80881639 1.44472346 5.29742886 3.32603071 7 7 C6.67 7.99 6.34 8.98 6 10 C4.99723227 8.52270825 3.99785546 7.04311423 3 5.5625 C2.443125 4.73878906 1.88625 3.91507812 1.3125 3.06640625 C0 1 0 1 0 0 Z " fill="#49A273" transform="translate(157,328)"/>
<path d="M0 0 C0.66 0.33 1.32 0.66 2 1 C1.34 2.65 0.68 4.3 0 6 C-2.97 5.505 -2.97 5.505 -6 5 C-5.195625 4.360625 -4.39125 3.72125 -3.5625 3.0625 C-1.7249496 1.59396498 -1.7249496 1.59396498 0 0 Z " fill="#70B0D6" transform="translate(176,228)"/>
<path d="M0 0 C0.66 0.66 1.32 1.32 2 2 C1.54545455 7.45454545 1.54545455 7.45454545 -1 10 C-1.02689216 8.52093108 -1.04634621 7.04172517 -1.0625 5.5625 C-1.07410156 4.73878906 -1.08570313 3.91507813 -1.09765625 3.06640625 C-1 1 -1 1 0 0 Z " fill="#2E4558" transform="translate(329,217)"/>
<path d="M0 0 C0.66 0 1.32 0 2 0 C1.42655063 2.86724686 1.1385485 3.8614515 -1 6 C-1.99 6 -2.98 6 -4 6 C-2.84826645 3.53199953 -1.95216435 1.95216435 0 0 Z " fill="#46A472" transform="translate(114,46)"/>
<path d="M0 0 C1.45792884 -0.05399736 2.91642712 -0.09279177 4.375 -0.125 C5.18710937 -0.14820313 5.99921875 -0.17140625 6.8359375 -0.1953125 C9 0 9 0 11 2 C10.01 2.33 9.02 2.66 8 3 C8 2.34 8 1.68 8 1 C3.39257135 2.21044132 3.39257135 2.21044132 -1 4 C-0.67 2.68 -0.34 1.36 0 0 Z " fill="#40596D" transform="translate(328,47)"/>
<path d="M0 0 C0.66 0.66 1.32 1.32 2 2 C0.98379995 5.04860014 0.22608429 5.86666922 -2 8 C-2.33 8.66 -2.66 9.32 -3 10 C-3.66 9.67 -4.32 9.34 -5 9 C-3.35 6.03 -1.7 3.06 0 0 Z " fill="#418EB9" transform="translate(225,100)"/>
<path d="M0 0 C0.99 0.33 1.98 0.66 3 1 C2.21654285 2.17219543 1.42297164 3.33763668 0.625 4.5 C0.18414062 5.1496875 -0.25671875 5.799375 -0.7109375 6.46875 C-1.13632813 6.9740625 -1.56171875 7.479375 -2 8 C-2.66 8 -3.32 8 -4 8 C-4 7.01 -4 6.02 -4 5 C-3.34 4.67 -2.68 4.34 -2 4 C-0.86649466 1.98330173 -0.86649466 1.98330173 0 0 Z " fill="#01373A" transform="translate(108,49)"/>
<path d="M0 0 C0.33 0.66 0.66 1.32 1 2 C1.99 1.67 2.98 1.34 4 1 C4 1.99 4 2.98 4 4 C4.66 4.33 5.32 4.66 6 5 C6 5.66 6 6.32 6 7 C5.34 7 4.68 7 4 7 C4 6.34 4 5.68 4 5 C2.68 4.34 1.36 3.68 0 3 C0 2.01 0 1.02 0 0 Z " fill="#465B6D" transform="translate(107,343)"/>
<path d="M0 0 C0.66 0.33 1.32 0.66 2 1 C0.62845496 3.95409701 -0.98863724 6.44008376 -3 9 C-3.66 8.67 -4.32 8.34 -5 8 C-3.35 5.36 -1.7 2.72 0 0 Z " fill="#033A3E" transform="translate(202,285)"/>
<path d="M0 0 C0.99 0.33 1.98 0.66 3 1 C1.70700306 3.88437779 0.34058637 5.87219421 -2 8 C-1.47731534 5.23723823 -0.89130413 2.6739124 0 0 Z " fill="#506378" transform="translate(293,287)"/>
<path d="M0 0 C1.32 0.99 2.64 1.98 4 3 C3.34 4.98 2.68 6.96 2 9 C1.34 8.67 0.68 8.34 0 8 C0 5.33333333 0 2.66666667 0 0 Z " fill="#033354" transform="translate(211,114)"/>
<path d="M0 0 C1.65 0.33 3.3 0.66 5 1 C5 1.66 5 2.32 5 3 C3.02 3.66 1.04 4.32 -1 5 C-0.67 3.35 -0.34 1.7 0 0 Z " fill="#4E606E" transform="translate(195,375)"/>
<path d="M0 0 C-0.99 0.495 -0.99 0.495 -2 1 C-2 1.66 -2 2.32 -2 3 C-3.98 3.99 -3.98 3.99 -6 5 C-6.33 3.68 -6.66 2.36 -7 1 C-4.53721199 -0.231394 -2.7204945 -0.07159196 0 0 Z " fill="#475A6B" transform="translate(239,349)"/>
<path d="M0 0 C0.66 0 1.32 0 2 0 C3.38938077 1.96147874 4.7260411 3.96166576 6 6 C5.67 6.66 5.34 7.32 5 8 C3.5 6.625 3.5 6.625 2 5 C2 4.34 2 3.68 2 3 C1.01 2.67 0.02 2.34 -1 2 C-0.67 1.34 -0.34 0.68 0 0 Z " fill="#48A274" transform="translate(182,327)"/>
<path d="M0 0 C-0.33 1.32 -0.66 2.64 -1 4 C-1.99 4 -2.98 4 -4 4 C-4.66 3.01 -5.32 2.02 -6 1 C-3.92446352 0.4465236 -2.15634036 0 0 0 Z " fill="#2E4A5D" transform="translate(80,312)"/>
<path d="M0 0 C1.32 0.33 2.64 0.66 4 1 C3.67 3.31 3.34 5.62 3 8 C1.0549 5.08235 0.54723683 3.37462715 0 0 Z " fill="#5CA2C8" transform="translate(197,199)"/>
<path d="M0 0 C2.31 0.33 4.62 0.66 7 1 C6.67 1.66 6.34 2.32 6 3 C4.02 3 2.04 3 0 3 C0 2.01 0 1.02 0 0 Z " fill="#63A4C9" transform="translate(138,189)"/>
<path d="M0 0 C1.37562854 1.28965176 2.70766393 2.62689293 4 4 C4 4.66 4 5.32 4 6 C3.34 6 2.68 6 2 6 C1.67 6.99 1.34 7.98 1 9 C0.67 6.03 0.34 3.06 0 0 Z " fill="#536577" transform="translate(8,180)"/>
<path d="M0 0 C0.66 0.33 1.32 0.66 2 1 C1.34 3.64 0.68 6.28 0 9 C-0.33 9 -0.66 9 -1 9 C-1.09765625 2.84765625 -1.09765625 2.84765625 -1 1 C-0.67 0.67 -0.34 0.34 0 0 Z " fill="#0C4065" transform="translate(202,124)"/>
<path d="M0 0 C1 4 1 4 -0.4375 6.75 C-1.2109375 7.86375 -1.2109375 7.86375 -2 9 C-2.66 8.67 -3.32 8.34 -4 8 C-2.68 5.36 -1.36 2.72 0 0 Z " fill="#3A8BB6" transform="translate(214,119)"/>
<path d="M0 0 C1.23556641 0.01740234 1.23556641 0.01740234 2.49609375 0.03515625 C3.32238281 0.04417969 4.14867187 0.05320312 5 0.0625 C5.63808594 0.07410156 6.27617187 0.08570312 6.93359375 0.09765625 C6.93359375 0.42765625 6.93359375 0.75765625 6.93359375 1.09765625 C5.26296875 1.53078125 5.26296875 1.53078125 3.55859375 1.97265625 C-0.06931717 2.79006954 -0.06931717 2.79006954 -2.06640625 5.09765625 C-2.62890625 3.16015625 -2.62890625 3.16015625 -3.06640625 1.09765625 C-2.06640625 0.09765625 -2.06640625 0.09765625 0 0 Z " fill="#4190BE" transform="translate(251.06640625,110.90234375)"/>
<path d="M0 0 C-0.60183749 2.02045442 -1.27306096 4.02111039 -2 6 C-2.99 6.495 -2.99 6.495 -4 7 C-4 5.02 -4 3.04 -4 1 C-2 0 -2 0 0 0 Z " fill="#053356" transform="translate(223,103)"/>
<path d="M0 0 C1.98 0.99 1.98 0.99 4 2 C4 2.66 4 3.32 4 4 C4.66 4 5.32 4 6 4 C6.33 5.32 6.66 6.64 7 8 C1.125 3.375 1.125 3.375 0 0 Z " fill="#043F3B" transform="translate(126,89)"/>
</svg>
